<svg width="479" height="442" viewBox="0 0 479 442" fill="none" xmlns="http://www.w3.org/2000/svg">
<g clip-path="url(#clip0_20_95)">
<g opacity="0.4">
<path d="M230.481 54.0416V56.0698L239.674 60.9792V58.951L230.481 54.0416Z" fill="white"/>
<path d="M230.481 57.7379V59.7851L239.674 64.6945V62.6663L230.481 57.7379Z" fill="white"/>
<path d="M230.481 61.4531V63.4814L239.674 68.4097V66.3626L230.481 61.4531Z" fill="white"/>
<path d="M299.812 104.292V102.264L243.126 71.9164V73.9447L299.812 104.292Z" fill="white"/>
<path d="M230.481 65.1684V67.1966L239.674 72.106V70.0778L230.481 65.1684Z" fill="white"/>
<path d="M230.481 68.8647V70.8929L239.674 75.8213V73.7741L230.481 68.8647Z" fill="white"/>
<path d="M299.812 108.007V105.979L243.126 75.6317V77.6599L299.812 108.007Z" fill="white"/>
<path d="M230.481 79.9914V82.0196L239.674 86.9291V84.9009L230.481 79.9914Z" fill="white"/>
<path d="M230.481 83.6877V85.7159L239.674 90.6443V88.6161L230.481 83.6877Z" fill="white"/>
<path d="M230.481 98.5297V100.558L239.674 105.467V103.439L230.481 98.5297Z" fill="white"/>
<path d="M230.481 102.226V104.254L239.674 109.164V107.135L230.481 102.226Z" fill="white"/>
<path d="M278.874 128.138L243.126 108.993V111.021L278.874 130.166V128.138Z" fill="white"/>
<path d="M280.773 129.143V131.171L299.812 141.369V139.34L280.773 129.143Z" fill="white"/>
<path d="M261.082 114.907L243.126 105.278V107.306L261.082 116.935V114.907Z" fill="white"/>
<path d="M262.981 115.912V117.94L299.812 137.653V135.625L262.981 115.912Z" fill="white"/>
<path d="M294.97 121.921V123.949L299.812 126.527V124.498L294.97 121.921Z" fill="white"/>
<path d="M268.599 104.084L243.126 90.4547V92.483L268.599 106.112V104.084Z" fill="white"/>
<path d="M258.16 68.8457L243.126 60.8087V62.8369L258.16 70.8739V68.8457Z" fill="white"/>
<path d="M282.796 82.0386L260.04 69.8503V71.8785L282.796 84.0668V82.0386Z" fill="white"/>
<path d="M269.538 78.6456L253.503 70.0778V72.106L269.538 80.6738V78.6456Z" fill="white"/>
<path d="M286.35 87.6494L271.418 79.6502V81.6784L286.35 89.6776V87.6494Z" fill="white"/>
<path d="M288.229 88.654V90.6822L299.812 96.8806V94.8524L288.229 88.654Z" fill="white"/>
<path d="M246.088 69.7935V71.8217L258.16 78.2854V76.2572L246.088 69.7935Z" fill="white"/>
<path d="M295.093 96.0276L260.04 77.2808V79.309L295.093 98.0558V96.0276Z" fill="white"/>
<path d="M275.013 96.4067L252.114 84.1616V86.1898L275.013 98.4349V96.4067Z" fill="white"/>
<path d="M295.093 107.154L276.913 97.4303V99.4585L295.093 109.183V107.154Z" fill="white"/>
<path d="M293.071 117.201L270.478 105.107V107.135L293.071 119.229V117.201Z" fill="white"/>
<path d="M280.773 114.319V116.348L293.071 122.925V120.897L280.773 114.319Z" fill="white"/>
<path d="M247.559 96.5394L243.126 94.17V96.1982L247.559 98.5676V96.5394Z" fill="white"/>
<path d="M255.852 100.975V103.003L278.874 115.324V113.296L255.852 100.975Z" fill="white"/>
<path d="M253.973 99.9703L249.438 97.544V99.5723L253.973 101.999V99.9703Z" fill="white"/>
<path d="M274.625 114.737L249.438 101.259V103.288L274.625 116.765V114.737Z" fill="white"/>
</g>
<g opacity="0.4">
<path d="M279.466 20.4717L241.369 0V1.80075L279.466 22.2725V20.4717Z" fill="white"/>
<path d="M241.369 5.32645L299.812 36.6975V34.8967L241.369 3.5257V5.32645Z" fill="white"/>
<path d="M282.02 21.7986V23.5994L299.812 33.1718V31.371L282.02 21.7986Z" fill="white"/>
<path d="M279.466 27.3525L241.369 6.88077V8.68152L279.466 29.1533V27.3525Z" fill="white"/>
<path d="M241.369 12.2262L299.812 43.5783V41.7775L241.369 10.4254V12.2262Z" fill="white"/>
<path d="M282.02 30.4801L299.812 40.0526V38.2518L282.02 28.6983V30.4801Z" fill="white"/>
<path d="M279.466 38.7257L241.369 18.254V20.0547L279.466 40.5265V38.7257Z" fill="white"/>
<path d="M241.369 23.5994L299.812 54.9515V53.1507L241.369 21.7986V23.5994Z" fill="white"/>
<path d="M282.02 41.8533L299.812 51.4258V49.625L282.02 40.0715V41.8533Z" fill="white"/>
<path d="M279.466 45.6255L241.369 25.1537V26.9545L279.466 47.4262V45.6255Z" fill="white"/>
<path d="M241.369 30.4801L299.812 61.8512V60.0504L241.369 28.6794V30.4801Z" fill="white"/>
<path d="M282.02 48.7531L299.812 58.3066V56.5248L282.02 46.9523V48.7531Z" fill="white"/>
<path d="M279.466 56.9986L241.369 36.5269V38.3276L279.466 58.7994V56.9986Z" fill="white"/>
<path d="M241.369 41.8533L299.812 73.2244V71.4236L241.369 40.0526V41.8533Z" fill="white"/>
<path d="M282.02 60.1263L299.812 69.6797V67.879L282.02 58.3255V60.1263Z" fill="white"/>
<path d="M279.466 63.8794L241.369 43.4077V45.2084L279.466 65.6802V63.8794Z" fill="white"/>
<path d="M241.369 48.7341L299.812 80.1051V78.3044L241.369 46.9333V48.7341Z" fill="white"/>
<path d="M282.02 67.007L299.812 76.5795V74.7787L282.02 65.2063V67.007Z" fill="white"/>
</g>
<path opacity="0.2" d="M176.696 46.2699L148.241 31.1057C147.927 30.9234 147.566 30.8237 147.196 30.8173C146.825 30.8109 146.46 30.898 146.139 31.0693C145.818 31.2407 145.553 31.4898 145.373 31.79C145.193 32.0902 145.104 32.4303 145.116 32.7738V64.3723C145.1 65.1402 145.308 65.8978 145.718 66.5651C146.128 67.2323 146.724 67.7845 147.444 68.1633L175.9 83.4413C176.219 83.6432 176.593 83.7571 176.979 83.7698C177.365 83.7824 177.747 83.6933 178.08 83.5127C178.414 83.3322 178.685 83.0676 178.863 82.7497C179.041 82.4317 179.119 82.0734 179.086 81.7164V50.061C179.075 49.2913 178.849 48.5375 178.43 47.8731C178.011 47.2087 177.414 46.6564 176.696 46.2699Z" fill="white"/>
<path d="M164.072 72.9211L126.772 52.9612C126.199 52.6521 125.544 52.5005 124.882 52.524C124.22 52.5475 123.579 52.7451 123.034 53.0939L114.863 57.4725L118.662 62.2682L120.092 63.7847V98.0748C120.088 99.0768 120.369 100.062 120.907 100.931C121.445 101.8 122.221 102.521 123.156 103.022L151.08 118.016L151.366 119.456L157.066 126.868L165.829 122.072C166.241 121.843 166.582 121.517 166.819 121.129C167.055 120.74 167.179 120.301 167.177 119.854V78.1528C167.202 77.1042 166.928 76.0681 166.383 75.1494C165.838 74.2307 165.041 73.462 164.072 72.9211Z" fill="#F4767A"/>
<path d="M155.35 77.6789L117.641 57.4725C117.223 57.2595 116.753 57.1506 116.276 57.1565C115.799 57.1625 115.332 57.2831 114.921 57.5065C114.509 57.7299 114.167 58.0486 113.928 58.4313C113.689 58.8141 113.56 59.2478 113.556 59.6903V101.619C113.553 102.623 113.838 103.61 114.379 104.479C114.921 105.348 115.701 106.068 116.64 106.567L154.39 126.83C154.821 127.059 155.309 127.178 155.805 127.178C156.301 127.177 156.788 127.055 157.218 126.825C157.648 126.595 158.006 126.264 158.255 125.866C158.504 125.468 158.636 125.016 158.639 124.555V82.8537C158.634 81.798 158.327 80.7624 157.75 79.853C157.172 78.9436 156.343 78.1933 155.35 77.6789Z" fill="#ED5561"/>
<path d="M158.495 124.555V82.8537C158.477 82.1661 158.332 81.4865 158.066 80.8444L166.809 76.1625C167.063 76.7674 167.202 77.4089 167.218 78.058V119.76C167.219 120.206 167.096 120.645 166.859 121.034C166.623 121.423 166.282 121.748 165.87 121.977L157.188 126.716C157.584 126.487 157.911 126.169 158.14 125.791C158.368 125.414 158.491 124.988 158.495 124.555Z" fill="#D8395A"/>
<path d="M122.441 77.5462L117.845 75.082V90.4168L120.889 92.047V86.5879L122.196 87.2892C122.766 87.7055 123.426 88.0023 124.132 88.1594C124.837 88.3164 125.57 88.33 126.282 88.1991C127.242 87.8389 127.732 86.8343 127.732 85.1852C127.771 83.6563 127.3 82.1537 126.384 80.8823C125.374 79.4956 124.022 78.352 122.441 77.5462ZM123.973 84.9956C123.244 85.0743 122.51 84.8837 121.931 84.4649L120.93 83.9341V79.3849L122.319 80.1241C123.045 80.4981 123.667 81.0237 124.137 81.6595C124.537 82.256 124.743 82.9472 124.729 83.6498C124.688 84.408 124.443 84.8629 123.973 84.9956Z" fill="white"/>
<path d="M138.395 92.1039L132.716 89.0521L132.737 83.0432L129.673 81.4131L129.632 96.7479L132.676 98.3781L132.696 91.7627L138.395 94.8145L138.375 101.43L141.418 103.06L141.459 87.7252L138.416 86.095L138.395 92.1039Z" fill="white"/>
<path d="M152.837 95.042C151.822 93.6529 150.463 92.5092 148.874 91.7058L144.278 89.2416V104.576L147.322 106.207V100.766L148.629 101.468C149.202 101.879 149.863 102.171 150.568 102.324C151.273 102.478 152.005 102.49 152.715 102.359C153.675 101.999 154.165 101.013 154.165 99.3448C154.207 97.8183 153.744 96.3166 152.837 95.042ZM150.325 99.1742C149.593 99.2435 148.86 99.0464 148.282 98.6245L147.281 98.0938V93.5445L148.67 94.2838C149.4 94.6524 150.024 95.1791 150.488 95.8191C150.891 96.4215 151.097 97.1195 151.081 97.8284C151.121 98.5677 150.876 99.0226 150.325 99.1742Z" fill="white"/>
<g opacity="0.4">
<path d="M75.9692 74.4754V76.5037L85.1615 81.432V79.4038L75.9692 74.4754Z" fill="white"/>
<path d="M75.9692 78.1907V80.2189L85.1615 85.1283V83.1001L75.9692 78.1907Z" fill="white"/>
<path d="M75.9692 81.887V83.9152L85.1615 88.8436V86.8153L75.9692 81.887Z" fill="white"/>
<path d="M145.3 124.726V122.698L88.6138 92.3693V94.3975L145.3 124.726Z" fill="white"/>
<path d="M75.9692 85.6022V87.6304L85.1615 92.5398V90.5116L75.9692 85.6022Z" fill="white"/>
<path d="M75.9692 89.2985V91.3457L85.1615 96.2551V94.2269L75.9692 89.2985Z" fill="white"/>
<path d="M145.3 128.441V126.413L88.6138 96.0656V98.0938L145.3 128.441Z" fill="white"/>
<path d="M75.9692 100.425V102.453L85.1615 107.382V105.354L75.9692 100.425Z" fill="white"/>
<path d="M75.9692 104.141V106.169L85.1615 111.078V109.05L75.9692 104.141Z" fill="white"/>
<path d="M75.9692 118.964V120.992L85.1615 125.901V123.873L75.9692 118.964Z" fill="white"/>
<path d="M75.9692 122.66V124.688L85.1615 129.616V127.588L75.9692 122.66Z" fill="white"/>
<path d="M124.362 148.572L88.6138 129.427V131.455L124.362 150.6V148.572Z" fill="white"/>
<path d="M126.261 149.576V151.605L145.299 161.803V159.774L126.261 149.576Z" fill="white"/>
<path d="M106.569 135.341L88.6138 125.731V127.759L106.569 137.369V135.341Z" fill="white"/>
<path d="M108.449 136.346V138.374L145.3 158.087V156.059L108.449 136.346Z" fill="white"/>
<path d="M140.458 142.354V144.383L145.3 146.98V144.951L140.458 142.354Z" fill="white"/>
<path d="M114.066 124.536L88.6138 110.889V112.917L114.066 126.565V124.536Z" fill="white"/>
<path d="M103.648 89.2795L88.6138 81.2425V83.2707L103.648 91.3078V89.2795Z" fill="white"/>
<path d="M128.283 102.472L105.527 90.3031V92.3313L128.283 104.501V102.472Z" fill="white"/>
<path d="M115.026 99.0794L98.9907 90.5116V92.5398L115.026 101.108V99.0794Z" fill="white"/>
<path d="M131.838 108.083L116.906 100.103V102.131L131.838 110.111V108.083Z" fill="white"/>
<path d="M133.717 109.088V111.116L145.3 117.314V115.286L133.717 109.088Z" fill="white"/>
<path d="M91.5757 90.2462V92.2745L103.648 98.7382V96.71L91.5757 90.2462Z" fill="white"/>
<path d="M140.581 116.461L105.527 97.7147V99.7429L140.581 118.509V116.461Z" fill="white"/>
<path d="M120.501 116.86L97.6016 104.595V106.624L120.501 118.888V116.86Z" fill="white"/>
<path d="M140.581 127.588L122.4 117.864V119.892L140.581 129.616V127.588Z" fill="white"/>
<path d="M138.558 137.635L115.966 125.541V127.569L138.558 139.663V137.635Z" fill="white"/>
<path d="M126.261 134.753V136.782L138.558 143.378V141.35L126.261 134.753Z" fill="white"/>
<path d="M93.0465 116.973L88.6138 114.604V116.632L93.0465 119.001V116.973Z" fill="white"/>
<path d="M101.34 121.428V123.456L124.361 135.777V133.749L101.34 121.428Z" fill="white"/>
<path d="M99.4606 120.404L94.9258 117.978V120.006L99.4606 122.432V120.404Z" fill="white"/>
<path d="M120.113 135.17L94.9258 121.693V123.721L120.113 137.199V135.17Z" fill="white"/>
</g>
<path opacity="0.2" d="M349.899 100.861L321.444 85.697C321.129 85.5136 320.765 85.4137 320.393 85.408C320.021 85.4024 319.654 85.4911 319.333 85.6648C319.011 85.8385 318.746 86.0904 318.568 86.3934C318.389 86.6964 318.303 87.0389 318.319 87.384V118.983C318.305 119.748 318.512 120.503 318.918 121.169C319.324 121.835 319.914 122.389 320.627 122.774L349.082 138.033C349.4 138.239 349.774 138.357 350.161 138.373C350.549 138.389 350.933 138.303 351.269 138.124C351.606 137.945 351.88 137.681 352.061 137.363C352.241 137.045 352.321 136.685 352.289 136.327V104.709C352.287 103.93 352.064 103.165 351.645 102.491C351.226 101.816 350.624 101.254 349.899 100.861Z" fill="white"/>
<path opacity="0.2" d="M388.752 39.7872L360.297 24.623C359.983 24.4406 359.621 24.3409 359.251 24.3345C358.881 24.3281 358.516 24.4153 358.195 24.5866C357.874 24.7579 357.609 25.0071 357.429 25.3073C357.248 25.6075 357.16 25.9475 357.171 26.291V57.8327C357.154 58.601 357.361 59.3594 357.771 60.027C358.181 60.6947 358.779 61.2465 359.5 61.6237L387.955 76.9017C388.274 77.1036 388.649 77.2175 389.035 77.2302C389.42 77.2428 389.802 77.1537 390.136 76.9731C390.469 76.7926 390.741 76.528 390.919 76.2101C391.097 75.8921 391.175 75.5338 391.142 75.1768V43.7109C391.162 42.9177 390.951 42.1341 390.53 41.4434C390.109 40.7526 389.495 40.1803 388.752 39.7872Z" fill="white"/>
<path opacity="0.2" d="M476.61 205.04L448.155 189.875C447.841 189.693 447.479 189.593 447.109 189.587C446.739 189.581 446.374 189.668 446.053 189.839C445.731 190.01 445.467 190.259 445.286 190.56C445.106 190.86 445.017 191.2 445.029 191.543V223.161C445.011 223.929 445.219 224.688 445.629 225.355C446.039 226.023 446.636 226.575 447.358 226.952L475.793 242.23C476.112 242.438 476.488 242.556 476.878 242.572C477.267 242.587 477.653 242.499 477.99 242.318C478.327 242.137 478.602 241.87 478.78 241.548C478.959 241.227 479.036 240.865 479 240.505V209.039C479.035 208.233 478.831 207.434 478.409 206.728C477.988 206.023 477.365 205.439 476.61 205.04Z" fill="white"/>
<path opacity="0.2" d="M228.929 127.266L200.473 112.102C200.158 111.923 199.797 111.828 199.428 111.825C199.059 111.822 198.696 111.911 198.378 112.084C198.059 112.257 197.797 112.507 197.62 112.807C197.442 113.107 197.355 113.447 197.369 113.789V145.387C197.357 146.152 197.565 146.906 197.971 147.572C198.376 148.238 198.965 148.793 199.677 149.178L228.132 164.437C228.45 164.644 228.824 164.762 229.211 164.778C229.598 164.794 229.983 164.708 230.319 164.529C230.655 164.35 230.93 164.086 231.11 163.768C231.291 163.449 231.37 163.09 231.339 162.731V131.114C231.336 130.333 231.112 129.566 230.689 128.891C230.266 128.215 229.659 127.655 228.929 127.266Z" fill="white"/>
<path d="M121.829 387.011C114.27 387.011 116.742 381.741 116.742 381.741C105.548 378.576 100.033 380.338 100.033 380.338C98.3527 385.843 97.7508 391.583 98.2555 397.284C98.2555 398.365 99.0726 399.028 100.176 399.426C106.202 401.493 111.697 402.876 122.911 401.872C131.184 401.113 139.927 394.024 137.946 386.707C136.7 382.196 129.489 386.935 121.829 387.011Z" fill="#933E31"/>
<path d="M118.581 321.122C116.374 318.449 112.575 316.175 106.324 317.71L38.7915 329.803L41.3245 345.897C44.7141 349.652 49.2186 352.4 54.2779 353.799C59.3372 355.197 64.728 355.185 69.7798 353.763C80.3879 351.02 90.4656 346.747 99.6445 341.101L97.3157 385.57C104.056 387.254 111.237 386.452 117.355 383.333C118.928 382.442 120.399 339.603 120.889 328.609C121.059 327.282 120.943 325.936 120.547 324.65C120.15 323.365 119.482 322.165 118.581 321.122Z" fill="#1C75BC"/>
<path d="M154.246 399.862C146.402 399.862 148.976 394.384 148.976 394.384C137.333 391.105 131.613 392.925 131.613 392.925C129.88 398.641 129.251 404.596 129.754 410.515C129.778 411.046 129.992 411.554 130.362 411.959C130.732 412.364 131.237 412.643 131.797 412.752C138.068 414.913 143.767 416.335 155.411 415.292C163.99 414.515 173.08 407.141 171.017 399.559C169.69 394.858 162.193 399.787 154.246 399.862Z" fill="#9D4D36"/>
<path d="M77.481 382.177L19.5083 351.071V358.654L77.5014 389.664L77.481 382.177Z" fill="#BBCEE1"/>
<path d="M72.2108 322.98L19.5083 351.071L77.481 382.177L130.245 354.047L72.2108 322.98Z" fill="white"/>
<path d="M130.245 354.047L77.481 382.177L77.5014 389.664L130.245 361.345V354.047Z" fill="#A7BCCE"/>
<path d="M150.876 331.434C148.588 328.666 144.748 326.297 138.109 327.889L67.9819 340.437L70.6579 357.137C74.1757 361.036 78.8514 363.89 84.1033 365.343C89.3552 366.795 94.9514 366.783 100.196 365.307C111.212 362.46 121.677 358.021 131.204 352.152L128.835 398.27C135.828 400.03 143.283 399.201 149.63 395.958C151.285 395.029 152.817 350.56 153.307 339.092C153.621 336.341 152.747 333.587 150.876 331.434Z" fill="#2A87C6"/>
<path d="M25.5752 237.302L145.32 172.854C147.804 171.523 150.622 170.822 153.491 170.822C156.36 170.822 159.178 171.523 161.662 172.854L350.288 274.113C351.387 274.699 352.3 275.544 352.934 276.563C353.569 277.581 353.904 278.737 353.904 279.913C353.904 281.09 353.569 282.245 352.934 283.264C352.3 284.282 351.387 285.127 350.288 285.713L233.219 348.778C230.255 350.37 226.89 351.209 223.465 351.209C220.04 351.209 216.675 350.37 213.711 348.778L25.5139 247.746C24.5179 247.22 23.6906 246.458 23.1172 245.537C22.5438 244.616 22.2448 243.571 22.2511 242.507C22.2573 241.444 22.5686 240.401 23.1527 239.486C23.7369 238.571 24.573 237.817 25.5752 237.302Z" fill="#E8EBF5"/>
<path d="M25.5955 247.689L213.792 348.721C216.757 350.313 220.121 351.152 223.546 351.152C226.972 351.152 230.336 350.313 233.3 348.721L350.369 285.657C351.449 285.08 352.349 284.253 352.979 283.256C353.61 282.258 353.949 281.126 353.964 279.97V288.424C353.957 289.579 353.624 290.713 352.996 291.711C352.369 292.709 351.47 293.536 350.39 294.111L233.3 357.137C230.336 358.73 226.972 359.568 223.546 359.568C220.121 359.568 216.757 358.73 213.792 357.137L25.5955 256.105C24.5989 255.578 23.7722 254.813 23.2011 253.89C22.6301 252.967 22.3354 251.919 22.3475 250.855V242.552C22.3508 243.598 22.6532 244.625 23.2238 245.528C23.7944 246.43 24.6128 247.176 25.5955 247.689Z" fill="#A7BCCE"/>
<path d="M25.5955 247.689L213.792 348.721C216.51 350.17 219.566 350.983 222.699 351.09V359.469C219.568 359.352 216.514 358.54 213.792 357.099L25.5955 256.067C24.5989 255.54 23.7722 254.776 23.2011 253.852C22.6301 252.929 22.3354 251.881 22.3475 250.817V242.514C22.3436 243.567 22.6425 244.602 23.2135 245.511C23.7845 246.421 24.6067 247.173 25.5955 247.689Z" fill="#BBCEE1"/>
<path d="M114.046 260.617L134.371 249.717C134.84 249.466 135.372 249.334 135.913 249.334C136.455 249.334 136.987 249.466 137.456 249.717L200.229 283.401C200.432 283.514 200.6 283.673 200.717 283.864C200.833 284.055 200.895 284.271 200.895 284.491C200.895 284.71 200.833 284.926 200.717 285.117C200.6 285.308 200.432 285.468 200.229 285.581L180.394 296.215C179.838 296.512 179.207 296.669 178.565 296.669C177.924 296.669 177.293 296.512 176.737 296.215L114.046 262.588C113.864 262.485 113.714 262.34 113.61 262.167C113.506 261.995 113.451 261.8 113.451 261.602C113.451 261.405 113.506 261.21 113.61 261.037C113.714 260.865 113.864 260.72 114.046 260.617Z" fill="#0F4463"/>
<path d="M114.045 262.588L176.737 296.215C177.293 296.512 177.923 296.669 178.565 296.669C179.207 296.669 179.838 296.512 180.393 296.215L200.228 285.581C200.436 285.47 200.608 285.309 200.726 285.116C200.845 284.923 200.905 284.704 200.902 284.481V286.718C200.894 286.936 200.828 287.148 200.711 287.336C200.593 287.525 200.428 287.684 200.228 287.799L180.393 298.376C179.838 298.673 179.207 298.83 178.565 298.83C177.923 298.83 177.293 298.673 176.737 298.376L114.045 264.825C113.858 264.727 113.704 264.583 113.6 264.409C113.495 264.235 113.444 264.038 113.453 263.839V261.602C113.453 261.8 113.507 261.994 113.611 262.167C113.715 262.339 113.864 262.484 114.045 262.588Z" fill="#0B3B56"/>
<path d="M134.146 252.769L136.679 251.404L139.58 252.94L137.047 254.305L134.146 252.769Z" fill="#1F5E77"/>
<path d="M137.741 254.703L140.295 253.319L143.175 254.873L140.642 256.238L137.741 254.703Z" fill="#1F5E77"/>
<path d="M141.357 256.617L143.89 255.252L146.791 256.807L144.258 258.171L141.357 256.617Z" fill="#1F5E77"/>
<path d="M144.952 258.55L147.506 257.186L150.406 258.721L147.853 260.086L144.952 258.55Z" fill="#1F5E77"/>
<path d="M148.568 260.484L151.121 259.1L154.002 260.655L151.469 262.019L148.568 260.484Z" fill="#1F5E77"/>
<path d="M152.184 262.398L154.717 261.034L157.617 262.588L155.084 263.953L152.184 262.398Z" fill="#1F5E77"/>
<path d="M155.779 264.332L158.332 262.967L161.212 264.502L158.679 265.867L155.779 264.332Z" fill="#1F5E77"/>
<path d="M159.395 266.265L161.928 264.882L164.828 266.436L162.295 267.801L159.395 266.265Z" fill="#1F5E77"/>
<path d="M162.989 268.18L165.543 266.815L168.423 268.369L165.89 269.734L162.989 268.18Z" fill="#1F5E77"/>
<path d="M166.605 270.113L169.158 268.748L172.039 270.284L169.506 271.649L166.605 270.113Z" fill="#1F5E77"/>
<path d="M170.221 272.028L172.754 270.663L175.654 272.217L173.121 273.582L170.221 272.028Z" fill="#1F5E77"/>
<path d="M173.816 273.961L176.369 272.596L179.25 274.151L176.717 275.497L173.816 273.961Z" fill="#1F5E77"/>
<path d="M179.965 274.511L182.865 276.065L180.332 277.43L177.432 275.895L179.965 274.511Z" fill="#1F5E77"/>
<path d="M133.738 256.086L130.857 254.532L133.39 253.167L136.291 254.722L133.738 256.086Z" fill="#1F5E77"/>
<path d="M139.886 256.636L137.353 258.001L134.453 256.465L137.006 255.101L139.886 256.636Z" fill="#1F5E77"/>
<path d="M143.502 258.569L140.969 259.934L138.068 258.399L140.601 257.015L143.502 258.569Z" fill="#1F5E77"/>
<path d="M147.097 260.503L144.564 261.868L141.664 260.313L144.217 258.949L147.097 260.503Z" fill="#1F5E77"/>
<path d="M150.712 262.417L148.179 263.782L145.279 262.247L147.812 260.882L150.712 262.417Z" fill="#1F5E77"/>
<path d="M154.328 264.351L151.775 265.716L148.874 264.18L151.427 262.796L154.328 264.351Z" fill="#1F5E77"/>
<path d="M157.923 266.284L155.39 267.649L152.49 266.095L155.043 264.73L157.923 266.284Z" fill="#1F5E77"/>
<path d="M161.539 268.199L159.006 269.564L156.105 268.028L158.638 266.663L161.539 268.199Z" fill="#1F5E77"/>
<path d="M165.134 270.132L162.601 271.497L159.701 269.962L162.254 268.578L165.134 270.132Z" fill="#1F5E77"/>
<path d="M168.75 272.066L166.217 273.43L163.316 271.876L165.849 270.511L168.75 272.066Z" fill="#1F5E77"/>
<path d="M172.366 273.98L169.812 275.345L166.912 273.809L169.465 272.445L172.366 273.98Z" fill="#1F5E77"/>
<path d="M175.961 275.914L173.428 277.278L170.527 275.743L173.06 274.359L175.961 275.914Z" fill="#1F5E77"/>
<path d="M176.676 276.293L179.576 277.828L177.043 279.212L174.143 277.657L176.676 276.293Z" fill="#1F5E77"/>
<path d="M130.449 257.849L127.548 256.314L130.102 254.949L132.982 256.484L130.449 257.849Z" fill="#1F5E77"/>
<path d="M136.597 258.418L134.064 259.783L131.164 258.228L133.697 256.863L136.597 258.418Z" fill="#1F5E77"/>
<path d="M134.759 260.162L137.312 258.797L140.213 260.332L137.659 261.697L134.759 260.162Z" fill="#1F5E77"/>
<path d="M143.808 262.266L141.275 263.63L138.375 262.095L140.928 260.711L143.808 262.266Z" fill="#1F5E77"/>
<path d="M147.424 264.199L144.891 265.564L141.99 264.01L144.523 262.645L147.424 264.199Z" fill="#1F5E77"/>
<path d="M151.019 266.114L148.486 267.478L145.585 265.943L148.139 264.578L151.019 266.114Z" fill="#1F5E77"/>
<path d="M154.635 268.047L152.102 269.412L149.201 267.876L151.734 266.493L154.635 268.047Z" fill="#1F5E77"/>
<path d="M158.25 269.981L155.697 271.345L152.796 269.791L155.35 268.426L158.25 269.981Z" fill="#1F5E77"/>
<path d="M161.846 271.895L159.313 273.26L156.412 271.724L158.966 270.36L161.846 271.895Z" fill="#1F5E77"/>
<path d="M165.461 273.828L162.928 275.193L160.027 273.658L162.56 272.274L165.461 273.828Z" fill="#1F5E77"/>
<path d="M169.056 275.762L166.523 277.127L163.623 275.572L166.176 274.208L169.056 275.762Z" fill="#1F5E77"/>
<path d="M167.238 277.506L169.771 276.141L172.672 277.676L170.139 279.041L167.238 277.506Z" fill="#1F5E77"/>
<path d="M173.387 278.056L176.288 279.61L173.734 280.975L170.833 279.42L173.387 278.056Z" fill="#1F5E77"/>
<path d="M127.16 259.631L124.259 258.077L126.813 256.712L129.693 258.266L127.16 259.631Z" fill="#1F5E77"/>
<path d="M127.875 260.01L130.408 258.626L133.309 260.181L130.776 261.545L127.875 260.01Z" fill="#1F5E77"/>
<path d="M131.47 261.925L134.024 260.56L136.904 262.114L134.371 263.479L131.47 261.925Z" fill="#1F5E77"/>
<path d="M135.086 263.858L137.639 262.493L140.52 264.029L137.987 265.393L135.086 263.858Z" fill="#1F5E77"/>
<path d="M138.681 265.791L141.235 264.408L144.135 265.962L141.582 267.327L138.681 265.791Z" fill="#1F5E77"/>
<path d="M142.297 267.706L144.85 266.341L147.731 267.895L145.198 269.26L142.297 267.706Z" fill="#1F5E77"/>
<path d="M145.912 269.639L148.445 268.275L151.346 269.81L148.813 271.175L145.912 269.639Z" fill="#1F5E77"/>
<path d="M149.507 271.573L152.061 270.189L154.941 271.743L152.408 273.108L149.507 271.573Z" fill="#1F5E77"/>
<path d="M153.123 273.487L155.656 272.122L158.557 273.677L156.024 275.042L153.123 273.487Z" fill="#1F5E77"/>
<path d="M156.718 275.421L159.272 274.056L162.172 275.591L159.619 276.956L156.718 275.421Z" fill="#1F5E77"/>
<path d="M160.334 277.354L162.887 275.97L165.768 277.525L163.235 278.89L160.334 277.354Z" fill="#1F5E77"/>
<path d="M163.95 279.269L166.483 277.904L169.383 279.458L166.85 280.823L163.95 279.269Z" fill="#1F5E77"/>
<path d="M170.098 279.837L172.979 281.373L170.446 282.737L167.545 281.202L170.098 279.837Z" fill="#1F5E77"/>
<path d="M123.871 261.394L120.971 259.858L123.524 258.475L126.404 260.029L123.871 261.394Z" fill="#1F5E77"/>
<path d="M124.566 261.773L127.119 260.408L130.02 261.943L127.487 263.308L124.566 261.773Z" fill="#1F5E77"/>
<path d="M128.181 263.706L130.735 262.342L133.615 263.877L131.082 265.242L128.181 263.706Z" fill="#1F5E77"/>
<path d="M131.797 265.621L134.33 264.256L137.231 265.81L134.698 267.175L131.797 265.621Z" fill="#1F5E77"/>
<path d="M135.392 267.554L137.946 266.189L140.826 267.744L138.293 269.109L135.392 267.554Z" fill="#1F5E77"/>
<path d="M139.008 269.488L141.561 268.104L144.441 269.658L141.908 271.023L139.008 269.488Z" fill="#1F5E77"/>
<path d="M142.603 271.402L145.156 270.037L148.057 271.592L145.504 272.957L142.603 271.402Z" fill="#1F5E77"/>
<path d="M146.219 273.336L148.772 271.971L151.652 273.506L149.119 274.871L146.219 273.336Z" fill="#1F5E77"/>
<path d="M149.834 275.269L152.367 273.885L155.268 275.44L152.735 276.804L149.834 275.269Z" fill="#1F5E77"/>
<path d="M153.43 277.184L155.983 275.819L158.863 277.373L156.33 278.738L153.43 277.184Z" fill="#1F5E77"/>
<path d="M157.045 279.117L159.578 277.752L162.479 279.288L159.946 280.652L157.045 279.117Z" fill="#1F5E77"/>
<path d="M160.64 281.05L163.194 279.667L166.094 281.221L163.541 282.586L160.64 281.05Z" fill="#1F5E77"/>
<path d="M166.809 281.6L169.69 283.154L167.157 284.519L164.256 282.965L166.809 281.6Z" fill="#1F5E77"/>
<path d="M120.215 260.256L123.115 261.792L120.582 263.157L117.682 261.621L120.215 260.256Z" fill="#1F5E77"/>
<path d="M126.711 263.725L124.178 265.09L121.277 263.536L123.83 262.171L126.711 263.725Z" fill="#1F5E77"/>
<path d="M130.326 265.659L127.793 267.024L124.893 265.469L127.426 264.104L130.326 265.659Z" fill="#1F5E77"/>
<path d="M133.942 267.573L131.409 268.938L128.508 267.403L131.041 266.019L133.942 267.573Z" fill="#1F5E77"/>
<path d="M137.537 269.507L135.004 270.871L132.104 269.317L134.657 267.952L137.537 269.507Z" fill="#1F5E77"/>
<path d="M141.153 271.421L138.62 272.786L135.719 271.251L138.252 269.886L141.153 271.421Z" fill="#1F5E77"/>
<path d="M141.868 271.819L145.463 273.734H145.484L146.178 274.113L149.079 275.667L150.549 276.444L152.694 277.582L154.962 278.814L159.19 281.069L156.657 282.434L152.245 280.065L150.141 278.965L147.955 277.79L146.525 277.032H146.546L143.686 275.515L142.93 275.098L139.314 273.184L141.868 271.819Z" fill="#1F5E77"/>
<path d="M162.785 282.984L160.252 284.349L157.352 282.813L159.905 281.449L162.785 282.984Z" fill="#1F5E77"/>
<path d="M166.401 284.917L163.868 286.282L160.967 284.747L163.5 283.363L166.401 284.917Z" fill="#1F5E77"/>
<path d="M184.643 279.743L187.176 278.378L190.076 279.913L187.543 281.278L184.643 279.743Z" fill="#1F5E77"/>
<path d="M188.258 281.676L190.791 280.292L193.692 281.847L191.139 283.211L188.258 281.676Z" fill="#1F5E77"/>
<path d="M191.854 283.59L194.407 282.226L197.287 283.78L194.754 285.145L191.854 283.59Z" fill="#1F5E77"/>
<path d="M186.787 281.695L184.254 283.06L181.354 281.505L183.886 280.141L186.787 281.695Z" fill="#1F5E77"/>
<path d="M190.382 283.609L187.849 284.974L184.949 283.439L187.502 282.074L190.382 283.609Z" fill="#1F5E77"/>
<path d="M193.998 285.543L191.465 286.908L188.564 285.372L191.097 283.989L193.998 285.543Z" fill="#1F5E77"/>
<path d="M183.499 283.458L180.945 284.823L178.065 283.287L180.598 281.903L183.499 283.458Z" fill="#1F5E77"/>
<path d="M187.094 285.391L184.561 286.756L181.66 285.202L184.214 283.837L187.094 285.391Z" fill="#1F5E77"/>
<path d="M190.71 287.306L188.177 288.67L185.276 287.135L187.809 285.77L190.71 287.306Z" fill="#1F5E77"/>
<path d="M174.756 285.05L177.309 283.685L180.21 285.221L177.657 286.585L174.756 285.05Z" fill="#1F5E77"/>
<path d="M178.371 286.983L180.904 285.6L183.805 287.154L181.272 288.519L178.371 286.983Z" fill="#1F5E77"/>
<path d="M181.966 288.898L184.52 287.533L187.42 289.087L184.867 290.452L181.966 288.898Z" fill="#1F5E77"/>
<path d="M171.467 286.813L174.02 285.448L176.9 287.002L174.367 288.367L171.467 286.813Z" fill="#1F5E77"/>
<path d="M175.083 288.746L177.616 287.382L180.516 288.917L177.983 290.282L175.083 288.746Z" fill="#1F5E77"/>
<path d="M178.678 290.68L181.231 289.296L184.132 290.85L181.578 292.215L178.678 290.68Z" fill="#1F5E77"/>
<path d="M173.612 288.765L171.079 290.13L168.178 288.595L170.732 287.23L173.612 288.765Z" fill="#1F5E77"/>
<path d="M177.228 290.699L174.695 292.063L171.794 290.509L174.327 289.144L177.228 290.699Z" fill="#1F5E77"/>
<path d="M159.129 242.533L179.127 231.767C179.541 231.538 180.014 231.417 180.496 231.417C180.978 231.417 181.45 231.538 181.864 231.767L229.297 257.186C229.47 257.286 229.612 257.426 229.711 257.592C229.81 257.758 229.862 257.944 229.862 258.133C229.862 258.323 229.81 258.509 229.711 258.675C229.612 258.841 229.47 258.981 229.297 259.081L209.748 269.601C209.256 269.872 208.695 270.014 208.124 270.014C207.552 270.014 206.991 269.872 206.5 269.601L159.129 244.239C158.973 244.149 158.844 244.023 158.754 243.874C158.665 243.725 158.618 243.557 158.618 243.386C158.618 243.215 158.665 243.048 158.754 242.898C158.844 242.749 158.973 242.623 159.129 242.533Z" fill="#1F5E77"/>
<path d="M159.129 244.258L206.5 269.62C206.991 269.891 207.552 270.033 208.124 270.033C208.695 270.033 209.256 269.891 209.748 269.62L229.297 259.1C229.476 259 229.625 258.858 229.729 258.689C229.833 258.519 229.888 258.328 229.889 258.133V260.465C229.888 260.657 229.833 260.846 229.729 261.012C229.625 261.179 229.476 261.317 229.297 261.413L209.748 271.838C209.254 272.103 208.694 272.242 208.124 272.242C207.554 272.242 206.993 272.103 206.5 271.838L159.129 246.457C158.966 246.367 158.831 246.24 158.738 246.087C158.645 245.934 158.596 245.761 158.598 245.585V243.405C158.6 243.578 158.65 243.747 158.743 243.896C158.836 244.046 158.969 244.17 159.129 244.258Z" fill="#07304B"/>
<path d="M159.129 244.258L206.5 269.62C206.947 269.863 207.452 270 207.971 270.018V272.274C207.454 272.263 206.949 272.132 206.5 271.895L159.129 246.514C158.966 246.424 158.831 246.297 158.738 246.144C158.645 245.991 158.596 245.818 158.598 245.642V243.405C158.6 243.578 158.65 243.747 158.743 243.896C158.836 244.046 158.969 244.17 159.129 244.258Z" fill="#0B3B56"/>
<path d="M210.993 244.22L174.143 224.412V241.358L210.993 261.147V244.22Z" fill="#0F4463"/>
<path d="M179.27 221.682L174.143 224.412L210.993 244.22L216.141 241.472L179.27 221.682Z" fill="#07304B"/>
<path d="M216.141 241.472L210.994 244.22V261.147L216.141 258.38V241.472Z" fill="#07304B"/>
<path d="M136.863 138.165L248.927 198.481V274.985L136.863 214.441V138.165Z" fill="url(#paint0_linear_20_95)"/>
<path d="M248.927 198.481L252.645 196.377V272.9L248.927 274.985V198.481Z" fill="#07304B"/>
<path d="M136.863 138.165L140.683 136.118L252.645 196.377L248.927 198.481L136.863 138.165Z" fill="#1F5E77"/>
<path d="M136.863 138.184V214.46L248.927 275.004V198.481L136.863 138.184ZM246.333 270.72L139.518 213.077V142.449L246.333 199.903V270.72Z" fill="#0B3B56"/>
<path d="M95.3751 232.639C94.2108 243.576 85.5291 251.727 75.9692 250.855C66.4092 249.983 59.6273 240.41 60.7917 229.473C61.956 218.536 70.6376 210.404 80.1772 211.276C89.7167 212.148 96.5395 221.72 95.3751 232.639Z" fill="#FED4BD"/>
<path d="M109.654 258.115C109.654 258.115 113.739 259.043 115.251 259.176C116.763 259.309 122.155 260.37 124.382 259.745C126.609 259.119 122.339 257.735 121.379 257.034C120.419 256.333 120.399 254.532 122.646 253.906C124.893 253.281 129.999 253.565 132.696 253.205C135.392 252.845 130.02 245.282 125.628 244.58C121.548 243.82 117.31 244.355 113.596 246.097C109.858 247.803 107.815 250.703 106.079 251.253L109.654 258.115Z" fill="#F4C5A2"/>
<path d="M110.144 247.803L81.7297 254.418L80.2998 271.156L113.841 260.465C114.536 254.57 110.144 247.803 110.144 247.803Z" fill="#ED5561"/>
<path d="M40.0173 254.892C40.0173 254.892 32.1528 264.066 40.0173 276.729C40.0173 276.729 45.5123 283.78 60.5876 276.861L40.0173 254.892Z" fill="#ED5561"/>
<path d="M63.3654 244.163C63.3654 244.163 75.6218 243.386 85.2022 249.604C85.7396 250.843 86.6555 251.911 87.8374 252.674C89.7575 253.869 99.2971 257.413 99.2971 257.413C99.2971 257.413 95.0891 309.294 99.9099 334.561C99.9099 334.561 79.217 349.555 46.7989 334.561C46.7989 334.561 42.0802 270.853 39.9966 254.949C40.017 254.892 45.4711 248.713 63.3654 244.163Z" fill="#DE495A"/>
<path d="M57.9727 329.803L0 298.698L19.5081 351.147L77.5012 382.177L57.9727 329.803Z" fill="#BBCEE1"/>
<path d="M6.39375 295.248L0 298.698L57.9727 329.804L64.4482 326.316L6.39375 295.248Z" fill="white"/>
<path d="M64.4481 326.316L57.9727 329.804L77.5012 382.177L84.0379 378.689L64.4481 326.316Z" fill="#A7BCCE"/>
<path d="M147.853 281.107C147.853 281.107 151.019 278.15 152.224 277.316C153.43 276.482 157.679 272.748 160.069 272.255C162.459 271.762 158.394 275.61 157.883 276.804C157.372 277.999 160.334 275.838 162.561 275.061C165.045 274.303 167.739 274.39 170.16 275.307C175.655 277.203 175.389 287.306 170.895 286.112C163.521 284.216 160.212 289.561 155.799 290.699C153.752 291.19 151.67 291.545 149.569 291.76L147.853 281.107Z" fill="#F4C5A2"/>
<path d="M99.2564 257.413L123.218 286.889L148.139 280.065C148.139 280.065 153.491 286.32 151.755 292.935L118.499 304.953L91.4736 277.373C91.4736 277.373 82.4651 259.858 99.2564 257.413Z" fill="#ED5561"/>
<path d="M85.9377 201.931C85.9377 201.931 87.7761 206.044 78.9515 207.163C70.1269 208.281 59.2392 212.337 56.3589 220.981C54.5204 226.497 56.6449 232.354 59.6477 237.245C60.6528 238.92 61.8221 240.507 63.1408 241.984C67.6049 242.755 72.2193 242.023 76.153 239.917C79.159 237.855 81.5664 235.132 83.1595 231.994C83.1595 231.994 88.4093 234.022 90.0435 229.966C91.2487 226.971 95.0483 226.175 97.1114 224.601C97.2135 224.601 109.021 206.537 85.9377 201.931Z" fill="#9D4D36"/>
<path d="M414.981 358.9L376.557 338.22V351.564L414.981 372.188V358.9Z" fill="#BBCEE1"/>
<path d="M416.268 317.047L376.557 338.22L414.981 358.9L454.732 337.708L416.268 317.047Z" fill="white"/>
<path d="M454.733 337.708L414.981 358.9V372.188L454.733 350.844V337.708Z" fill="#A7BCCE"/>
<path d="M414.981 337.101L376.557 316.402V329.747L414.981 350.37V337.101Z" fill="#BBCEE1"/>
<path d="M416.268 295.229L376.557 316.402L414.981 337.101L454.732 315.89L416.268 295.229Z" fill="white"/>
<path d="M454.733 315.89L414.981 337.101V350.37L454.733 329.026V315.89Z" fill="#A7BCCE"/>
<path d="M350.001 393.816L311.598 373.116V386.461L350.022 407.084L350.001 393.816Z" fill="#BBCEE1"/>
<path d="M351.309 351.943L311.598 373.116L350.001 393.816L389.773 372.605L351.309 351.943Z" fill="white"/>
<path d="M389.773 372.605L350.001 393.816L350.022 407.084L389.773 385.741V372.605Z" fill="#A7BCCE"/>
<path d="M350.001 371.998L311.598 351.318V364.643L350.022 385.286L350.001 371.998Z" fill="#BBCEE1"/>
<path d="M351.309 330.145L311.598 351.318L350.001 371.998L389.773 350.806L351.309 330.145Z" fill="white"/>
<path d="M389.773 350.806L350.001 371.998L350.022 385.286L389.773 363.942V350.806Z" fill="#A7BCCE"/>
<path d="M285.042 428.712L246.639 408.032V421.358L285.042 442V428.712Z" fill="#BBCEE1"/>
<path d="M286.35 386.859L246.639 408.032L285.042 428.712L324.814 407.52L286.35 386.859Z" fill="white"/>
<path d="M324.814 407.52L285.042 428.712V442L324.814 420.656V407.52Z" fill="#A7BCCE"/>
<path d="M285.042 406.895L246.639 386.215V399.559L285.042 420.182V406.895Z" fill="#BBCEE1"/>
<path d="M286.35 365.041L246.639 386.215L285.042 406.895L324.814 385.703L286.35 365.041Z" fill="white"/>
<path d="M324.814 385.703L285.042 406.895V420.182L324.814 398.839V385.703Z" fill="#A7BCCE"/>
<path d="M297.033 393.854L294.623 392.546C292.806 393.201 290.903 393.628 288.965 393.816V395.711H283.102V393.816C281.164 393.624 279.262 393.197 277.444 392.546L275.054 393.854L270.968 391.617L273.379 390.328C272.311 389.531 271.493 388.484 271.009 387.295H267.618V384.129H270.846C271.316 382.944 272.12 381.896 273.174 381.097L270.846 379.883L274.931 377.647L277.342 378.936C279.156 378.297 281.05 377.877 282.979 377.685V375.789H288.842V377.685C290.784 377.877 292.693 378.297 294.521 378.936L296.911 377.647L300.996 379.883L298.586 381.172C299.657 381.965 300.477 383.014 300.955 384.205H304.346V387.352H301.078C300.608 388.538 299.804 389.585 298.749 390.385L301.16 391.674L297.033 393.854ZM280.569 388.641C282.256 389.435 284.121 389.849 286.013 389.849C287.905 389.849 289.77 389.435 291.457 388.641C294.439 387.011 294.419 384.395 291.457 382.784C289.773 381.99 287.912 381.576 286.023 381.576C284.135 381.576 282.273 381.99 280.589 382.784C277.587 384.395 277.607 387.011 280.589 388.641" fill="#1C75BC"/>
<path d="M354.23 341.651L357.968 349.043L361.706 356.455L347.918 354.464L334.129 352.493L344.18 347.072L354.23 341.651Z" fill="#EF3636"/>
<path d="M401.233 314.317C399.19 313.199 400.089 311.587 404.052 309.445C405.675 308.558 407.44 307.918 409.282 307.55C410.54 307.228 411.881 307.336 413.061 307.853C413.466 308.056 413.81 308.349 414.062 308.706C414.26 309.01 414.418 309.334 414.531 309.673L418.167 308.839C417.959 308.296 417.632 307.799 417.207 307.379C416.76 306.935 416.235 306.564 415.655 306.28C413.594 305.23 411.223 304.824 408.893 305.124C406.002 305.465 403.219 306.362 400.723 307.758C398.615 308.644 396.893 310.168 395.84 312.08C395.35 313.464 396.065 314.658 397.883 315.701C399.138 316.378 400.528 316.81 401.969 316.971L404.788 315.454C403.54 315.271 402.337 314.886 401.233 314.317Z" fill="#91A6B7"/>
<path d="M418.495 318.392C418.841 317.596 418.841 316.706 418.495 315.909C418.234 315.369 418.135 314.773 418.209 314.184C418.279 313.947 418.405 313.727 418.578 313.54C418.752 313.353 418.967 313.204 419.209 313.104C419.756 312.799 420.371 312.617 421.007 312.573C421.597 312.545 422.184 312.67 422.703 312.933C423.118 313.152 423.485 313.442 423.785 313.786C424.005 314.089 424.203 314.406 424.378 314.734L427.973 313.938C427.409 312.81 426.461 311.884 425.276 311.303C423.888 310.56 422.303 310.192 420.701 310.242C419.046 310.252 417.425 310.67 416.002 311.455C415.36 311.78 414.78 312.203 414.286 312.706C413.957 313.088 413.726 313.536 413.612 314.014C413.549 314.585 413.626 315.161 413.837 315.701C414.106 316.299 414.191 316.956 414.082 317.596C414.02 317.844 413.897 318.076 413.724 318.273C413.55 318.47 413.331 318.627 413.081 318.734C412.53 319.037 411.903 319.2 411.263 319.207C410.597 319.223 409.939 319.066 409.363 318.753C408.302 318.165 407.493 317.254 407.076 316.175L403.95 317.862C404.645 318.95 405.667 319.827 406.892 320.383C408.334 321.187 409.99 321.601 411.672 321.577C413.389 321.537 415.066 321.079 416.533 320.25C417.374 319.828 418.058 319.181 418.495 318.392Z" fill="#91A6B7"/>
<path d="M435.143 316.63C433.753 315.886 432.17 315.512 430.567 315.549C428.913 315.58 427.295 316.004 425.869 316.781C425.228 317.102 424.654 317.525 424.173 318.032C423.828 318.405 423.595 318.857 423.499 319.34C423.424 319.905 423.501 320.478 423.724 321.008C423.978 321.61 424.063 322.263 423.969 322.904C423.892 323.146 423.764 323.371 423.592 323.566C423.42 323.761 423.208 323.923 422.968 324.041C422.407 324.339 421.775 324.501 421.129 324.515C420.469 324.531 419.818 324.374 419.25 324.06C418.184 323.478 417.374 322.565 416.962 321.482L413.837 323.169C414.517 324.262 415.535 325.14 416.758 325.69C418.205 326.484 419.857 326.897 421.538 326.884C423.262 326.844 424.945 326.387 426.42 325.558C427.277 325.165 427.988 324.545 428.463 323.776C428.819 322.974 428.819 322.075 428.463 321.274C428.213 320.737 428.115 320.15 428.177 319.568C428.254 319.328 428.385 319.107 428.561 318.917C428.737 318.728 428.954 318.575 429.198 318.468C429.746 318.17 430.362 317.995 430.996 317.956C431.587 317.92 432.176 318.045 432.691 318.317C433.105 318.53 433.467 318.82 433.754 319.17C433.981 319.468 434.179 319.786 434.346 320.117L437.941 319.302C437.358 318.145 436.372 317.204 435.143 316.63Z" fill="#91A6B7"/>
<path d="M414.123 197.571L376.802 177.611C376.234 177.302 375.581 177.15 374.923 177.173C374.264 177.197 373.626 177.395 373.084 177.744L364.914 182.123L368.733 186.918L370.143 188.435V222.725C370.141 223.729 370.425 224.715 370.967 225.584C371.508 226.453 372.289 227.174 373.228 227.672L401.152 242.666L401.438 244.107L407.137 251.518L415.9 246.722C416.307 246.489 416.643 246.162 416.876 245.774C417.108 245.386 417.229 244.949 417.228 244.505V202.803C417.253 201.754 416.979 200.718 416.434 199.8C415.889 198.881 415.091 198.112 414.123 197.571Z" fill="#79FF68"/>
<path d="M405.4 202.329L367.65 182.123C367.233 181.91 366.762 181.801 366.285 181.807C365.809 181.813 365.342 181.933 364.93 182.157C364.519 182.38 364.176 182.699 363.937 183.081C363.698 183.464 363.57 183.898 363.565 184.34V226.345C363.559 227.353 363.842 228.343 364.384 229.216C364.925 230.088 365.708 230.811 366.65 231.312L404.379 251.556C404.811 251.783 405.3 251.902 405.797 251.901C406.294 251.899 406.782 251.778 407.212 251.548C407.643 251.319 408.002 250.989 408.254 250.591C408.506 250.194 408.642 249.742 408.648 249.281V207.39C408.626 206.358 408.316 205.348 407.746 204.461C407.177 203.573 406.368 202.839 405.4 202.329Z" fill="#50E85E"/>
<path d="M408.587 249.206V207.39C408.57 206.701 408.418 206.02 408.138 205.381L416.901 200.699C417.146 201.306 417.284 201.946 417.31 202.594V244.296C417.311 244.74 417.19 245.177 416.958 245.566C416.725 245.954 416.389 246.28 415.982 246.514L407.3 251.253C407.676 251.032 407.988 250.731 408.212 250.374C408.436 250.018 408.565 249.617 408.587 249.206Z" fill="#3CC743"/>
<path d="M456.734 114.187L419.413 94.2079C418.839 93.9032 418.185 93.7542 417.524 93.7776C416.863 93.8011 416.223 93.9961 415.675 94.3406L407.504 98.7382L411.324 103.515L412.734 105.031V139.322C412.728 140.329 413.01 141.319 413.552 142.192C414.094 143.064 414.876 143.788 415.818 144.288L443.742 159.263L444.028 160.703L449.728 168.115L458.491 163.338C458.901 163.107 459.239 162.781 459.472 162.393C459.705 162.004 459.824 161.565 459.819 161.12V119.418C459.854 118.37 459.587 117.333 459.045 116.413C458.502 115.493 457.705 114.724 456.734 114.187Z" fill="#9263C1"/>
<path d="M448.094 118.945L410.344 98.7193C409.924 98.5112 409.453 98.4069 408.977 98.4164C408.5 98.4259 408.035 98.5489 407.625 98.7735C407.214 98.9981 406.873 99.3168 406.634 99.699C406.395 100.081 406.265 100.514 406.258 100.956V142.942C406.256 143.946 406.54 144.932 407.082 145.801C407.624 146.67 408.404 147.391 409.343 147.889L447.072 168.134C447.503 168.362 447.991 168.482 448.487 168.481C448.983 168.48 449.471 168.359 449.9 168.129C450.33 167.898 450.688 167.568 450.937 167.17C451.186 166.771 451.319 166.319 451.321 165.859V123.987C451.306 122.958 451 121.95 450.434 121.065C449.867 120.18 449.06 119.449 448.094 118.945Z" fill="#8444B2"/>
<path d="M451.26 165.802V123.987C451.252 123.298 451.106 122.617 450.831 121.977L459.594 117.295C459.83 117.904 459.961 118.544 459.982 119.191V160.893C459.988 161.338 459.868 161.776 459.635 162.165C459.402 162.554 459.064 162.88 458.654 163.11L449.952 167.849C450.33 167.629 450.646 167.329 450.873 166.973C451.101 166.617 451.233 166.215 451.26 165.802Z" fill="#7231A3"/>
<path d="M332.128 114.793L294.746 94.8145C294.172 94.5098 293.517 94.3607 292.856 94.3842C292.195 94.4076 291.555 94.6027 291.007 94.9471L282.836 99.3258L286.656 104.122L288.066 105.638V139.928C288.06 140.935 288.342 141.926 288.884 142.798C289.426 143.671 290.208 144.394 291.15 144.894L319.074 159.869L319.36 161.31L325.06 168.721L333.823 163.944C334.23 163.711 334.566 163.385 334.799 162.996C335.031 162.608 335.152 162.171 335.151 161.727V120.025C335.193 118.982 334.935 117.948 334.403 117.029C333.872 116.109 333.087 115.338 332.128 114.793Z" fill="#FFA8E1"/>
<path d="M323.344 119.551L285.594 99.3448C285.175 99.131 284.703 99.0222 284.224 99.029C283.746 99.0358 283.277 99.1581 282.865 99.3837C282.453 99.6094 282.111 99.9306 281.873 100.316C281.636 100.701 281.51 101.137 281.509 101.582V143.492C281.503 144.499 281.786 145.489 282.327 146.362C282.869 147.234 283.651 147.958 284.593 148.458L322.323 168.702C322.753 168.931 323.241 169.051 323.738 169.05C324.234 169.049 324.721 168.927 325.151 168.697C325.581 168.467 325.938 168.137 326.188 167.738C326.437 167.34 326.569 166.888 326.572 166.428V124.726C326.582 123.674 326.288 122.639 325.72 121.729C325.152 120.819 324.332 120.067 323.344 119.551Z" fill="#FF7AD2"/>
<path d="M326.51 166.409V124.707C326.502 124.018 326.357 123.337 326.081 122.698L334.844 118.016C335.081 118.625 335.212 119.264 335.232 119.911V161.613C335.234 162.057 335.113 162.494 334.88 162.883C334.648 163.271 334.312 163.597 333.905 163.831L325.203 168.57C325.597 168.339 325.924 168.021 326.152 167.643C326.38 167.266 326.503 166.841 326.51 166.409Z" fill="#DE64C6"/>
<path d="M250.419 33.93L213.057 14.0459C212.483 13.7412 211.828 13.5921 211.167 13.6156C210.507 13.639 209.866 13.8341 209.319 14.1786L201.148 18.5762L204.947 23.3529L206.377 24.8694V59.1595C206.369 60.1648 206.649 61.154 207.187 62.0264C207.725 62.8988 208.503 63.6232 209.441 64.1258L237.366 79.1005L237.652 80.5411L243.351 87.9527L252.114 83.1759C252.529 82.9491 252.873 82.6245 253.109 82.2351C253.346 81.8457 253.468 81.4052 253.462 80.9581V39.2565C253.518 38.1966 253.265 37.1423 252.73 36.2049C252.194 35.2674 251.396 34.4815 250.419 33.93Z" fill="#FCEC32"/>
<path d="M241.634 38.6878L203.885 18.4625C203.465 18.2544 202.994 18.1501 202.518 18.1596C202.041 18.1691 201.576 18.2921 201.165 18.5167C200.755 18.7413 200.414 19.0599 200.175 19.4421C199.936 19.8244 199.806 20.2572 199.799 20.6992V62.6283C199.797 63.6322 200.081 64.6188 200.623 65.4877C201.165 66.3567 201.945 67.0771 202.884 67.5757L240.634 87.8199C241.064 88.0485 241.552 88.1684 242.048 88.1675C242.545 88.1666 243.032 88.0451 243.462 87.8149C243.892 87.5848 244.249 87.2541 244.498 86.8559C244.748 86.4577 244.88 86.0058 244.882 85.5453V43.8436C244.889 42.7929 244.591 41.7598 244.02 40.8527C243.448 39.9456 242.624 39.1978 241.634 38.6878Z" fill="#F5D012"/>
<path d="M244.822 85.5453V43.8436C244.804 43.156 244.658 42.4764 244.393 41.8344L253.135 37.1524C253.387 37.758 253.525 38.3991 253.544 39.0479V80.7496C253.549 81.1967 253.428 81.6372 253.191 82.0266C252.954 82.416 252.611 82.7405 252.196 82.9674L243.514 87.7062C243.906 87.4732 244.231 87.1541 244.459 86.7773C244.687 86.4005 244.811 85.9774 244.822 85.5453Z" fill="#EAA10C"/>
<path d="M315.888 127.778C313.917 124.455 311.062 121.655 307.594 119.646C306.402 118.847 305.003 118.355 303.54 118.218C302.076 118.082 300.6 118.306 299.26 118.869C295.174 121.03 294.705 127.531 297.871 134.033L287.657 139.454L290.64 144.25L300.853 138.829C302.621 141.172 304.896 143.147 307.533 144.629C308.72 145.423 310.112 145.912 311.567 146.049C313.023 146.185 314.492 145.964 315.826 145.406C320.443 143.056 320.463 135.132 315.888 127.778ZM312.844 140.686C311.99 141.043 311.05 141.185 310.118 141.098C309.186 141.012 308.294 140.7 307.533 140.194C305.309 138.916 303.48 137.127 302.222 135C299.301 130.299 299.301 125.219 302.222 123.627C303.076 123.27 304.016 123.128 304.948 123.215C305.88 123.301 306.772 123.613 307.533 124.119C309.748 125.415 311.574 127.208 312.844 129.332C315.786 134.052 315.786 139.151 312.844 140.686Z" fill="white"/>
<path d="M211.607 42.2893C212.237 42.6253 212.814 43.0398 213.322 43.5214C213.894 44.0521 214.466 44.6019 215.038 45.2084L216.101 42.9527C214.827 41.5532 213.316 40.3559 211.627 39.4081C210.495 38.715 209.163 38.358 207.807 38.3845C207.277 38.4293 206.768 38.5991 206.328 38.8778C205.888 39.1564 205.532 39.5347 205.295 39.9767C204.652 41.2226 204.35 42.5964 204.416 43.9763C204.356 46.4565 204.959 48.912 206.173 51.1225C207.33 53.1761 209.104 54.8747 211.28 56.0129C212.556 56.7616 213.991 57.2464 215.488 57.4346V54.5344C214.12 54.3384 212.799 53.9214 211.586 53.3023C209.033 51.9376 207.746 49.5113 207.766 45.7202C207.609 44.464 207.966 43.1988 208.767 42.1756C209.564 41.6069 210.422 41.6258 211.607 42.2893Z" fill="#8444B2"/>
<path d="M224.128 49.0184L221.84 47.7863L221.82 52.1461L217.775 49.9662V52.4114L221.82 54.5913L221.8 58.8942L224.087 60.1073L224.108 55.8234L228.152 57.9843L228.173 55.5391L224.108 53.3592L224.128 49.0184Z" fill="#8444B2"/>
<path d="M236.344 59.9177L236.365 55.577L234.077 54.3449L234.056 58.6856L230.012 56.5247V58.97L234.056 61.1498L234.036 65.4337L236.324 66.6658L236.344 62.363L240.389 64.5428V62.0976L236.344 59.9177Z" fill="#8444B2"/>
<path d="M418.556 116.291C418.06 116.955 417.842 117.763 417.943 118.565V123.721C417.943 124.669 417.616 125.181 416.963 125.238C415.952 125.207 414.972 124.904 414.144 124.366V127.778C415.215 128.319 416.165 129.047 416.942 129.92C417.597 130.698 417.943 131.662 417.923 132.649V137.597C417.892 138.61 418.094 139.618 418.515 140.554C419.012 141.477 419.707 142.296 420.558 142.961C421.68 143.878 422.906 144.679 424.214 145.349V142.051C423.409 141.634 422.712 141.058 422.171 140.364C421.824 139.784 421.641 139.132 421.64 138.469V133.464C421.572 132.41 421.23 131.388 420.643 130.483C420.056 129.579 419.242 128.82 418.27 128.271V128.081C420.496 128.934 421.62 128.346 421.661 126.337V121.598C421.661 120.84 421.845 120.366 422.212 120.215C422.58 120.063 423.254 120.215 424.255 120.707V117.409C423.123 116.752 421.9 116.242 420.619 115.893C420.269 115.779 419.891 115.756 419.528 115.826C419.164 115.896 418.828 116.057 418.556 116.291Z" fill="white"/>
<path d="M439.657 137.426C439.032 136.692 438.693 135.783 438.697 134.848V129.673C438.744 128.179 438.256 126.712 437.308 125.503C435.98 124.03 434.348 122.818 432.507 121.94V125.238C433.314 125.645 434.012 126.215 434.55 126.906C434.903 127.484 435.086 128.137 435.081 128.801V133.54C435.149 134.627 435.493 135.683 436.086 136.622C436.679 137.561 437.504 138.357 438.492 138.942V139.132C437.717 138.742 436.806 138.653 435.959 138.886C435.367 139.151 435.061 139.758 435.061 140.781V145.672C435.061 146.43 434.877 146.904 434.53 147.074C434.182 147.245 433.467 147.074 432.487 146.563V149.861C433.892 150.829 435.579 151.384 437.328 151.453C438.247 151.282 438.717 150.391 438.717 148.761V143.814C438.717 142.79 439.044 142.222 439.677 142.127C440.69 142.15 441.672 142.453 442.496 142.999V139.511C441.42 138.984 440.457 138.277 439.657 137.426Z" fill="white"/>
<path d="M368.305 209.134L379.989 220.924L380.01 217.91L371.941 210.044L380.03 210.385V207.371L368.305 207.333V209.134Z" fill="#1F5E77"/>
<path d="M381.194 224.128L384.462 225.872L390.958 210.916L387.669 209.172L381.194 224.128Z" fill="#1F5E77"/>
<path d="M392.082 213.835V216.849L400.151 225.151L392.061 224.374L392.041 227.388L403.787 228.146V226.345L392.082 213.835Z" fill="#1F5E77"/>
<path d="M150.815 154.069V156.097L160.007 161.006V158.978L150.815 154.069Z" fill="#F5D012"/>
<path d="M150.815 157.765V159.793L160.007 164.722V162.693L150.815 157.765Z" fill="#EDF0F8"/>
<path d="M150.815 161.48V163.509L160.007 168.418V166.39L150.815 161.48Z" fill="#EDF0F8"/>
<path d="M220.145 204.319V202.291L163.439 171.944V173.972L220.145 204.319Z" fill="#EDF0F8"/>
<path d="M150.815 165.177V167.205L160.007 172.133V170.105L150.815 165.177Z" fill="#EDF0F8"/>
<path d="M150.815 168.892V170.92L160.007 175.83V173.801L150.815 168.892Z" fill="#EDF0F8"/>
<path d="M220.145 208.016V205.987L163.439 175.659V177.668L220.145 208.016Z" fill="#50E85E"/>
<path d="M150.815 180V182.028L160.007 186.956V184.928L150.815 180Z" fill="#EDF0F8"/>
<path d="M150.815 183.715V185.743L160.007 190.653V188.624L150.815 183.715Z" fill="#F5D012"/>
<path d="M150.815 198.538V200.566L160.007 205.495V203.447L150.815 198.538Z" fill="#EDF0F8"/>
<path d="M150.815 202.253V204.281L160.007 209.191V207.163L150.815 202.253Z" fill="#EDF0F8"/>
<path d="M199.207 228.146L163.439 209.001V211.03L199.207 230.174V228.146Z" fill="#50E85E"/>
<path d="M201.086 229.151V231.198L220.145 241.377V239.349L201.086 229.151Z" fill="#EDF0F8"/>
<path d="M181.415 214.915L163.439 205.305V207.333L181.415 216.944V214.915Z" fill="#EDF0F8"/>
<path d="M183.294 215.939V217.948L220.145 237.681V235.652L183.294 215.939Z" fill="#EDF0F8"/>
<path d="M215.283 221.929V223.957L220.145 226.554V224.526L215.283 221.929Z" fill="#EDF0F8"/>
<path d="M188.912 204.111L163.439 190.482V192.51L188.912 206.139V204.111Z" fill="#ED5561"/>
<path d="M178.473 168.873L163.439 160.817V162.845L178.473 170.901V168.873Z" fill="#EDF0F8"/>
<path d="M203.129 182.066L180.373 169.878V171.906L203.129 184.094V182.066Z" fill="#EDF0F8"/>
<path d="M189.851 178.673L173.836 170.086V172.114L189.851 180.701V178.673Z" fill="#EDF0F8"/>
<path d="M206.683 187.658L191.751 179.677V181.706L206.683 189.705V187.658Z" fill="#ED5561"/>
<path d="M208.563 188.681V190.709L220.145 196.908V194.88L208.563 188.681Z" fill="#EDF0F8"/>
<path d="M166.401 169.821V171.849L178.473 178.313V176.284L166.401 169.821Z" fill="#ED5561"/>
<path d="M215.406 196.055L180.373 177.289V179.317L215.406 198.083V196.055Z" fill="#EDF0F8"/>
<path d="M195.346 196.434L172.447 184.17V186.198L195.346 198.462V196.434Z" fill="#EDF0F8"/>
<path d="M215.406 207.163L197.226 197.439V199.467L215.406 209.191V207.163Z" fill="#EDF0F8"/>
<path d="M213.404 217.209L190.812 205.115V207.144L213.404 219.237V217.209Z" fill="#EDF0F8"/>
<path d="M201.086 214.328V216.356L213.404 222.952V220.924L201.086 214.328Z" fill="#50E85E"/>
<path d="M167.872 196.548L163.439 194.178V196.206L167.872 198.576V196.548Z" fill="#EDF0F8"/>
<path d="M176.186 201.002V203.03L199.207 215.351V213.323L176.186 201.002Z" fill="#EDF0F8"/>
<path d="M174.306 199.998L169.771 197.571V199.599L174.306 202.026V199.998Z" fill="#EDF0F8"/>
<path d="M194.958 214.745L169.771 201.268V203.296L194.958 216.773V214.745Z" fill="#EDF0F8"/>
<path d="M224.128 193.325V193.875L226.661 195.24V194.671L224.128 193.325Z" fill="#EDF0F8"/>
<path d="M224.128 194.349V194.899L226.661 196.263V195.695L224.128 194.349Z" fill="#EDF0F8"/>
<path d="M224.128 195.372V195.922L226.661 197.287V196.718L224.128 195.372Z" fill="#EDF0F8"/>
<path d="M243.228 207.163V206.613L227.601 198.254V198.803L243.228 207.163Z" fill="#EDF0F8"/>
<path d="M224.128 196.396V196.946L226.661 198.292V197.742L224.128 196.396Z" fill="#EDF0F8"/>
<path d="M224.128 197.401V197.969L226.661 199.315V198.765L224.128 197.401Z" fill="#EDF0F8"/>
<path d="M243.228 208.186V207.637L227.601 199.277V199.827L243.228 208.186Z" fill="#EDF0F8"/>
<path d="M224.128 200.471V201.04L226.661 202.386V201.836L224.128 200.471Z" fill="#EDF0F8"/>
<path d="M224.128 201.495V202.045L226.661 203.409V202.841L224.128 201.495Z" fill="#EDF0F8"/>
<path d="M224.128 205.57V206.139L226.661 207.504V206.935L224.128 205.57Z" fill="#EDF0F8"/>
<path d="M224.128 206.594V207.163L226.661 208.508V207.959L224.128 206.594Z" fill="#EDF0F8"/>
<path d="M237.467 213.74L227.601 208.471V209.02L237.467 214.29V213.74Z" fill="#EDF0F8"/>
<path d="M237.978 214.024V214.574L243.228 217.38V216.83L237.978 214.024Z" fill="#EDF0F8"/>
<path d="M232.565 210.101L227.601 207.447V207.997L232.565 210.65V210.101Z" fill="#EDF0F8"/>
<path d="M233.076 210.366V210.935L243.228 216.356V215.806L233.076 210.366Z" fill="#EDF0F8"/>
<path d="M241.9 212.034V212.584L243.228 213.304V212.736L241.9 212.034Z" fill="#EDF0F8"/>
<path d="M234.628 207.106L227.601 203.353V203.921L234.628 207.674V207.106Z" fill="#EDF0F8"/>
<path d="M231.748 197.401L227.601 195.183V195.752L231.748 197.969V197.401Z" fill="#EDF0F8"/>
<path d="M238.55 201.04L232.259 197.685V198.235L238.55 201.59V201.04Z" fill="#EDF0F8"/>
<path d="M234.873 200.111L230.461 197.742V198.292L234.873 200.661V200.111Z" fill="#EDF0F8"/>
<path d="M239.51 202.575L235.404 200.377V200.945L239.51 203.144V202.575Z" fill="#EDF0F8"/>
<path d="M240.042 202.86V203.428L243.228 205.134V204.566L240.042 202.86Z" fill="#EDF0F8"/>
<path d="M228.418 197.666V198.235L231.748 199.998V199.448L228.418 197.666Z" fill="#EDF0F8"/>
<path d="M241.921 204.888L232.259 199.732V200.282L241.921 205.457V204.888Z" fill="#EDF0F8"/>
<path d="M236.385 205.002L230.093 201.628V202.177L236.385 205.551V205.002Z" fill="#EDF0F8"/>
<path d="M241.921 207.959L236.916 205.286V205.836L241.921 208.508V207.959Z" fill="#EDF0F8"/>
<path d="M241.369 210.726L235.139 207.39V207.959L241.369 211.295V210.726Z" fill="#EDF0F8"/>
<path d="M237.978 209.93V210.499L241.369 212.3V211.75L237.978 209.93Z" fill="#EDF0F8"/>
<path d="M228.827 205.04L227.601 204.376V204.945L228.827 205.589V205.04Z" fill="#EDF0F8"/>
<path d="M231.115 206.253V206.821L237.468 210.214V209.646L231.115 206.253Z" fill="#EDF0F8"/>
<path d="M230.604 205.987L229.337 205.305V205.874L230.604 206.537V205.987Z" fill="#EDF0F8"/>
<path d="M236.283 210.044L229.337 206.329V206.897L236.283 210.613V210.044Z" fill="#EDF0F8"/>
<path d="M224.128 210.613V211.162L226.661 212.527V211.958L224.128 210.613Z" fill="#EDF0F8"/>
<path d="M224.128 211.617V212.186L226.661 213.551V212.982L224.128 211.617Z" fill="#EDF0F8"/>
<path d="M224.128 212.641V213.209L226.661 214.555V214.005L224.128 212.641Z" fill="#EDF0F8"/>
<path d="M243.228 224.45V223.9L227.601 215.541V216.091L243.228 224.45Z" fill="#EDF0F8"/>
<path d="M224.128 213.664V214.233L226.661 215.579V215.029L224.128 213.664Z" fill="#EDF0F8"/>
<path d="M224.128 214.688V215.257L226.661 216.602V216.053L224.128 214.688Z" fill="#EDF0F8"/>
<path d="M243.228 225.473V224.924L227.601 216.546V217.114L243.228 225.473Z" fill="#EDF0F8"/>
<path d="M224.128 217.759V218.308L226.661 219.673V219.104L224.128 217.759Z" fill="#EDF0F8"/>
<path d="M224.128 218.782V219.332L226.661 220.697V220.128L224.128 218.782Z" fill="#EDF0F8"/>
<path d="M224.128 222.858V223.426L226.661 224.772V224.222L224.128 222.858Z" fill="#EDF0F8"/>
<path d="M224.128 223.881V224.45L226.661 225.796V225.246L224.128 223.881Z" fill="#EDF0F8"/>
<path d="M237.467 231.027L227.601 225.739V226.307L237.467 231.577V231.027Z" fill="#EDF0F8"/>
<path d="M237.978 231.293V231.861L243.228 234.667V234.098L237.978 231.293Z" fill="#EDF0F8"/>
<path d="M232.565 227.369L227.601 224.734V225.284L232.565 227.938V227.369Z" fill="#EDF0F8"/>
<path d="M233.076 227.653V228.203L243.228 233.643V233.094L233.076 227.653Z" fill="#EDF0F8"/>
<path d="M241.9 229.302V229.871L243.228 230.572V230.023L241.9 229.302Z" fill="#EDF0F8"/>
<path d="M234.628 224.393L227.601 220.64V221.19L234.628 224.962V224.393Z" fill="#EDF0F8"/>
<path d="M231.748 214.688L227.601 212.47V213.02L231.748 215.238V214.688Z" fill="#EDF0F8"/>
<path d="M238.55 218.327L232.259 214.972V215.522L238.55 218.877V218.327Z" fill="#EDF0F8"/>
<path d="M234.873 217.38L230.461 215.029V215.579L234.873 217.948V217.38Z" fill="#EDF0F8"/>
<path d="M239.51 219.863L235.404 217.664V218.233L239.51 220.431V219.863Z" fill="#EDF0F8"/>
<path d="M240.042 220.147V220.697L243.228 222.403V221.853L240.042 220.147Z" fill="#EDF0F8"/>
<path d="M228.418 214.953V215.503L231.748 217.285V216.735L228.418 214.953Z" fill="#EDF0F8"/>
<path d="M241.921 222.175L232.259 217V217.569L241.921 222.725V222.175Z" fill="#EDF0F8"/>
<path d="M236.385 222.289L230.093 218.896V219.465L236.385 222.839V222.289Z" fill="#EDF0F8"/>
<path d="M241.921 225.246L236.916 222.554V223.123L241.921 225.796V225.246Z" fill="#EDF0F8"/>
<path d="M241.369 228.013L235.139 224.677V225.227L241.369 228.563V228.013Z" fill="#EDF0F8"/>
<path d="M237.978 227.217V227.767L241.369 229.587V229.037L237.978 227.217Z" fill="#EDF0F8"/>
<path d="M228.827 222.308L227.601 221.663V222.213L228.827 222.877V222.308Z" fill="#EDF0F8"/>
<path d="M231.115 223.54V224.09L237.468 227.502V226.933L231.115 223.54Z" fill="#EDF0F8"/>
<path d="M230.604 223.256L229.337 222.592V223.142L230.604 223.824V223.256Z" fill="#EDF0F8"/>
<path d="M236.283 227.331L229.337 223.616V224.166L236.283 227.881V227.331Z" fill="#EDF0F8"/>
<path d="M224.128 227.881V228.449L226.661 229.795V229.246L224.128 227.881Z" fill="#EDF0F8"/>
<path d="M224.128 228.904V229.473L226.661 230.819V230.269L224.128 228.904Z" fill="#EDF0F8"/>
<path d="M224.128 229.928V230.497L226.661 231.842V231.293L224.128 229.928Z" fill="#EDF0F8"/>
<path d="M243.228 241.737V241.168L227.601 232.809V233.378L243.228 241.737Z" fill="#EDF0F8"/>
<path d="M224.128 230.952V231.52L226.661 232.866V232.316L224.128 230.952Z" fill="#EDF0F8"/>
<path d="M224.128 231.975V232.525L226.661 233.89V233.321L224.128 231.975Z" fill="#EDF0F8"/>
<path d="M243.228 242.761V242.192L227.601 233.833V234.401L243.228 242.761Z" fill="#EDF0F8"/>
<path d="M224.128 235.046V235.596L226.661 236.941V236.392L224.128 235.046Z" fill="#EDF0F8"/>
<path d="M224.128 236.051V236.619L226.661 237.965V237.415L224.128 236.051Z" fill="#EDF0F8"/>
<path d="M224.128 240.145V240.695L226.661 242.059V241.491L224.128 240.145Z" fill="#EDF0F8"/>
<path d="M224.128 241.168V241.718L226.661 243.083V242.514L224.128 241.168Z" fill="#EDF0F8"/>
<path d="M237.467 248.296L227.601 243.026V243.595L237.467 248.864V248.296Z" fill="#EDF0F8"/>
<path d="M237.978 248.58V249.149L243.228 251.954V251.385L237.978 248.58Z" fill="#EDF0F8"/>
<path d="M232.565 244.656L227.601 242.002V242.571L232.565 245.225V244.656Z" fill="#EDF0F8"/>
<path d="M233.076 244.941V245.49L243.228 250.93V250.362L233.076 244.941Z" fill="#EDF0F8"/>
<path d="M241.9 246.59V247.139L243.228 247.86V247.31L241.9 246.59Z" fill="#EDF0F8"/>
<path d="M234.628 241.68L227.601 237.927V238.477L234.628 242.23V241.68Z" fill="#EDF0F8"/>
<path d="M231.748 231.975L227.601 229.757V230.307L231.748 232.525V231.975Z" fill="#EDF0F8"/>
<path d="M238.55 235.596L232.259 232.24V232.809L238.55 236.164V235.596Z" fill="#EDF0F8"/>
<path d="M234.873 234.667L230.461 232.297V232.866L234.873 235.216V234.667Z" fill="#EDF0F8"/>
<path d="M239.51 237.15L235.404 234.951V235.501L239.51 237.7V237.15Z" fill="#EDF0F8"/>
<path d="M240.042 237.415V237.984L243.228 239.69V239.14L240.042 237.415Z" fill="#EDF0F8"/>
<path d="M228.418 232.222V232.79L231.748 234.572V234.003L228.418 232.222Z" fill="#EDF0F8"/>
<path d="M241.921 239.462L232.259 234.288V234.837L241.921 240.012V239.462Z" fill="#EDF0F8"/>
<path d="M236.385 239.557L230.093 236.183V236.733L236.385 240.126V239.557Z" fill="#EDF0F8"/>
<path d="M241.921 242.514L236.916 239.842V240.391L241.921 243.083V242.514Z" fill="#EDF0F8"/>
<path d="M241.369 245.282L235.139 241.946V242.514L241.369 245.85V245.282Z" fill="#EDF0F8"/>
<path d="M237.978 244.505V245.054L241.369 246.874V246.305L237.978 244.505Z" fill="#EDF0F8"/>
<path d="M228.827 239.595L227.601 238.951V239.5L228.827 240.145V239.595Z" fill="#EDF0F8"/>
<path d="M231.115 240.827V241.377L237.468 244.77V244.22L231.115 240.827Z" fill="#EDF0F8"/>
<path d="M230.604 240.543L229.337 239.88V240.429L230.604 241.093V240.543Z" fill="#EDF0F8"/>
<path d="M236.283 244.618L229.337 240.903V241.453L236.283 245.168V244.618Z" fill="#EDF0F8"/>
<path d="M224.128 245.168V245.737L226.661 247.083V246.533L224.128 245.168Z" fill="#EDF0F8"/>
<path d="M224.128 246.192V246.741L226.661 248.106V247.537L224.128 246.192Z" fill="#EDF0F8"/>
<path d="M224.128 247.215V247.765L226.661 249.13V248.561L224.128 247.215Z" fill="#EDF0F8"/>
<path d="M243.228 259.024V258.456L227.601 250.096V250.665L243.228 259.024Z" fill="#EDF0F8"/>
<path d="M224.128 248.239V248.788L226.661 250.153V249.585L224.128 248.239Z" fill="#EDF0F8"/>
<path d="M224.128 249.262V249.812L226.661 251.158V250.608L224.128 249.262Z" fill="#EDF0F8"/>
<path d="M243.228 260.029V259.479L227.601 251.12V251.67L243.228 260.029Z" fill="#EDF0F8"/>
<path d="M224.128 252.314V252.883L226.661 254.229V253.679L224.128 252.314Z" fill="#EDF0F8"/>
<path d="M224.128 253.338V253.906L226.661 255.252V254.703L224.128 253.338Z" fill="#EDF0F8"/>
<path d="M241.9 263.877V264.427L243.228 265.147V264.578L241.9 263.877Z" fill="#EDF0F8"/>
<path d="M234.628 258.967L227.601 255.195V255.764L234.628 259.517V258.967Z" fill="#EDF0F8"/>
<path d="M231.748 249.243L227.601 247.026V247.594L231.748 249.812V249.243Z" fill="#EDF0F8"/>
<path d="M238.55 252.883L232.259 249.528V250.096L238.55 253.452V252.883Z" fill="#EDF0F8"/>
<path d="M234.873 251.954L230.461 249.585V250.153L234.873 252.504V251.954Z" fill="#EDF0F8"/>
<path d="M239.51 254.437L235.404 252.219V252.788L239.51 254.987V254.437Z" fill="#EDF0F8"/>
<path d="M240.042 254.703V255.271L243.228 256.977V256.409L240.042 254.703Z" fill="#EDF0F8"/>
<path d="M228.418 249.509V250.077L231.748 251.859V251.291L228.418 249.509Z" fill="#EDF0F8"/>
<path d="M241.921 256.731L232.259 251.575V252.125L241.921 257.299V256.731Z" fill="#EDF0F8"/>
<path d="M236.385 256.845L230.093 253.47V254.02L236.385 257.394V256.845Z" fill="#EDF0F8"/>
<path d="M241.921 259.802L236.916 257.129V257.679L241.921 260.37V259.802Z" fill="#EDF0F8"/>
<path d="M241.369 262.569L235.139 259.233V259.802L241.369 263.138V262.569Z" fill="#EDF0F8"/>
<path d="M237.978 261.773V262.342L241.369 264.142V263.593L237.978 261.773Z" fill="#EDF0F8"/>
<path d="M228.827 256.882L227.601 256.219V256.788L228.827 257.432V256.882Z" fill="#EDF0F8"/>
<path d="M231.115 258.096V258.664L237.468 262.057V261.508L231.115 258.096Z" fill="#EDF0F8"/>
<path d="M230.604 257.83L229.337 257.148V257.716L230.604 258.38V257.83Z" fill="#EDF0F8"/>
<path d="M236.283 261.887L229.337 258.171V258.74L236.283 262.455V261.887Z" fill="#EDF0F8"/>
<path d="M144.932 150.922L141.908 149.292C141.873 149.271 141.833 149.259 141.791 149.258C141.749 149.257 141.707 149.267 141.671 149.287C141.635 149.306 141.606 149.335 141.586 149.37C141.567 149.404 141.558 149.443 141.561 149.482V152.837C141.56 152.92 141.584 153.001 141.631 153.072C141.678 153.142 141.746 153.199 141.827 153.235L144.85 154.865C144.885 154.881 144.923 154.889 144.962 154.888C145.001 154.886 145.038 154.875 145.071 154.856C145.104 154.837 145.131 154.81 145.15 154.779C145.168 154.747 145.178 154.711 145.177 154.675V151.32C145.182 151.239 145.162 151.158 145.118 151.087C145.075 151.016 145.01 150.959 144.932 150.922Z" fill="#50E85E"/>
<path d="M144.932 155.945L141.908 154.334C141.875 154.314 141.836 154.302 141.796 154.301C141.756 154.299 141.716 154.307 141.681 154.325C141.645 154.342 141.615 154.368 141.594 154.4C141.573 154.431 141.562 154.468 141.561 154.505V157.86C141.56 157.943 141.584 158.024 141.631 158.095C141.678 158.165 141.746 158.222 141.827 158.258L144.85 159.888C144.884 159.904 144.923 159.912 144.962 159.911C145.001 159.909 145.038 159.898 145.071 159.879C145.104 159.86 145.131 159.833 145.15 159.802C145.168 159.77 145.177 159.735 145.177 159.699V156.362C145.179 156.279 145.158 156.197 145.115 156.123C145.071 156.05 145.008 155.989 144.932 155.945Z" fill="#50E85E"/>
<path d="M144.932 160.969L141.908 159.357C141.875 159.337 141.836 159.325 141.796 159.324C141.756 159.322 141.716 159.33 141.681 159.348C141.645 159.365 141.615 159.391 141.594 159.423C141.573 159.454 141.562 159.491 141.561 159.528V162.902C141.566 162.984 141.593 163.063 141.64 163.132C141.686 163.202 141.75 163.259 141.827 163.3L144.85 164.911C144.882 164.934 144.92 164.947 144.959 164.949C144.999 164.952 145.039 164.944 145.074 164.926C145.108 164.907 145.137 164.88 145.155 164.847C145.173 164.815 145.181 164.777 145.177 164.741V161.386C145.179 161.302 145.158 161.22 145.114 161.146C145.071 161.073 145.008 161.012 144.932 160.969Z" fill="#50E85E"/>
<path d="M144.932 166.011L141.908 164.38C141.873 164.359 141.833 164.347 141.791 164.346C141.749 164.346 141.707 164.355 141.671 164.375C141.635 164.395 141.606 164.424 141.586 164.458C141.567 164.492 141.558 164.531 141.561 164.57V167.925C141.56 168.008 141.584 168.09 141.631 168.16C141.678 168.231 141.746 168.287 141.827 168.323L144.85 169.953C144.885 169.97 144.923 169.978 144.962 169.976C145.001 169.974 145.038 169.964 145.071 169.944C145.104 169.925 145.131 169.899 145.15 169.867C145.168 169.835 145.178 169.8 145.177 169.764V166.409C145.182 166.327 145.162 166.246 145.118 166.176C145.075 166.105 145.01 166.048 144.932 166.011Z" fill="#50E85E"/>
<path d="M144.932 171.034L141.908 169.423C141.875 169.402 141.836 169.391 141.796 169.389C141.756 169.387 141.716 169.396 141.681 169.413C141.645 169.43 141.615 169.456 141.594 169.488C141.573 169.52 141.562 169.556 141.561 169.593V172.948C141.56 173.031 141.584 173.113 141.631 173.183C141.678 173.254 141.746 173.31 141.827 173.346L144.85 174.976C144.884 174.993 144.923 175.001 144.962 174.999C145.001 174.998 145.038 174.987 145.071 174.968C145.104 174.949 145.131 174.922 145.15 174.89C145.168 174.859 145.177 174.823 145.177 174.787V171.375C145.168 171.304 145.141 171.237 145.098 171.177C145.055 171.118 144.998 171.069 144.932 171.034Z" fill="#50E85E"/>
<path d="M144.932 176.057L141.908 174.446C141.875 174.425 141.836 174.414 141.796 174.412C141.756 174.411 141.716 174.419 141.681 174.436C141.645 174.454 141.615 174.48 141.594 174.511C141.573 174.543 141.562 174.579 141.561 174.616V177.99C141.566 178.072 141.593 178.151 141.64 178.221C141.686 178.29 141.75 178.348 141.827 178.388L144.85 180C144.883 180.015 144.92 180.023 144.957 180.023C144.994 180.022 145.03 180.013 145.063 179.996C145.095 179.979 145.122 179.955 145.142 179.926C145.162 179.897 145.174 179.864 145.177 179.829V176.474C145.179 176.391 145.158 176.308 145.114 176.235C145.071 176.162 145.008 176.1 144.932 176.057Z" fill="#50E85E"/>
<path d="M144.932 181.099L141.908 179.469C141.873 179.448 141.833 179.436 141.791 179.435C141.749 179.434 141.707 179.444 141.671 179.464C141.635 179.483 141.606 179.512 141.586 179.546C141.567 179.581 141.558 179.62 141.561 179.658V183.014C141.56 183.096 141.584 183.178 141.631 183.248C141.678 183.319 141.746 183.376 141.827 183.412L144.85 185.042C144.885 185.058 144.923 185.066 144.962 185.064C145.001 185.063 145.038 185.052 145.071 185.033C145.104 185.014 145.131 184.987 145.15 184.955C145.168 184.924 145.178 184.888 145.177 184.852V181.497C145.182 181.416 145.162 181.335 145.118 181.264C145.075 181.193 145.01 181.136 144.932 181.099Z" fill="#50E85E"/>
<path d="M144.932 186.122L141.908 184.492C141.872 184.477 141.833 184.47 141.793 184.471C141.754 184.473 141.715 184.484 141.681 184.503C141.647 184.521 141.618 184.547 141.597 184.578C141.576 184.61 141.564 184.645 141.561 184.682V188.037C141.56 188.12 141.584 188.201 141.631 188.272C141.678 188.342 141.746 188.399 141.827 188.435L144.85 190.065C144.884 190.081 144.923 190.089 144.962 190.088C145.001 190.086 145.038 190.075 145.071 190.056C145.104 190.037 145.131 190.01 145.15 189.979C145.168 189.947 145.177 189.911 145.177 189.875V186.539C145.181 186.456 145.161 186.372 145.117 186.299C145.074 186.225 145.01 186.164 144.932 186.122Z" fill="#50E85E"/>
<path d="M144.932 191.145L141.908 189.534C141.875 189.514 141.836 189.502 141.796 189.501C141.756 189.499 141.716 189.507 141.681 189.525C141.645 189.542 141.615 189.568 141.594 189.6C141.573 189.631 141.562 189.668 141.561 189.705V193.079C141.564 193.159 141.59 193.236 141.637 193.303C141.684 193.37 141.749 193.423 141.827 193.458L144.85 195.088C144.883 195.104 144.92 195.112 144.957 195.111C144.994 195.11 145.03 195.101 145.063 195.084C145.095 195.067 145.122 195.043 145.142 195.014C145.162 194.985 145.174 194.952 145.177 194.918V191.562C145.179 191.479 145.158 191.397 145.114 191.323C145.071 191.25 145.008 191.189 144.932 191.145Z" fill="#50E85E"/>
<path d="M144.932 196.188L141.908 194.557C141.873 194.536 141.833 194.524 141.791 194.523C141.749 194.522 141.707 194.532 141.671 194.552C141.635 194.572 141.606 194.6 141.586 194.635C141.567 194.669 141.558 194.708 141.561 194.747V198.102C141.562 198.184 141.588 198.265 141.635 198.335C141.681 198.405 141.748 198.462 141.827 198.5L144.85 200.111C144.882 200.134 144.92 200.147 144.96 200.15C144.999 200.152 145.039 200.144 145.074 200.126C145.109 200.107 145.137 200.08 145.155 200.047C145.173 200.015 145.181 199.977 145.177 199.941V196.586C145.182 196.504 145.162 196.423 145.118 196.352C145.075 196.282 145.01 196.224 144.932 196.188Z" fill="#50E85E"/>
<path d="M144.932 201.211L141.908 199.581C141.873 199.559 141.833 199.547 141.791 199.546C141.749 199.546 141.707 199.555 141.671 199.575C141.635 199.595 141.606 199.624 141.586 199.658C141.567 199.692 141.558 199.731 141.561 199.77V203.125C141.56 203.208 141.584 203.29 141.631 203.36C141.678 203.431 141.746 203.487 141.827 203.523L144.85 205.153C144.885 205.17 144.923 205.178 144.962 205.176C145.001 205.174 145.038 205.164 145.071 205.144C145.104 205.125 145.131 205.099 145.15 205.067C145.168 205.035 145.178 205 145.177 204.964V201.704C145.198 201.608 145.186 201.508 145.142 201.419C145.098 201.331 145.024 201.257 144.932 201.211Z" fill="#50E85E"/>
<path d="M144.932 206.234L141.908 204.623C141.875 204.602 141.836 204.591 141.796 204.589C141.756 204.587 141.716 204.596 141.681 204.613C141.645 204.63 141.615 204.656 141.594 204.688C141.573 204.72 141.562 204.756 141.561 204.793V208.167C141.564 208.247 141.59 208.324 141.637 208.391C141.684 208.458 141.749 208.512 141.827 208.546L144.85 210.177C144.884 210.193 144.923 210.201 144.962 210.199C145.001 210.198 145.038 210.187 145.071 210.168C145.104 210.149 145.131 210.122 145.15 210.09C145.168 210.059 145.177 210.023 145.177 209.987V206.651C145.179 206.567 145.158 206.485 145.114 206.412C145.071 206.339 145.008 206.277 144.932 206.234Z" fill="#50E85E"/>
<g opacity="0.4">
<path d="M287.085 168.74V170.768L296.278 175.678V173.65L287.085 168.74Z" fill="white"/>
<path d="M287.085 172.436V174.465L296.278 179.393V177.346L287.085 172.436Z" fill="white"/>
<path d="M287.085 176.152V178.18L296.278 183.089V181.061L287.085 176.152Z" fill="white"/>
<path d="M356.416 218.991V216.963L299.73 186.615V188.643L356.416 218.991Z" fill="white"/>
<path d="M287.085 179.848V181.876L296.278 186.805V184.776L287.085 179.848Z" fill="white"/>
<path d="M287.085 183.563V185.591L296.278 190.501V188.473L287.085 183.563Z" fill="white"/>
<path d="M356.416 222.687V220.659L299.73 190.33V192.34L356.416 222.687Z" fill="white"/>
<path d="M287.085 194.671V196.718L296.278 201.628V199.599L287.085 194.671Z" fill="white"/>
<path d="M287.085 198.386V200.415L296.278 205.324V203.296L287.085 198.386Z" fill="white"/>
<path d="M287.085 213.209V215.238L296.278 220.166V218.138L287.085 213.209Z" fill="white"/>
<path d="M287.085 216.925V218.953L296.278 223.862V221.834L287.085 216.925Z" fill="white"/>
<path d="M335.498 242.818L299.73 223.673V225.72L335.498 244.846V242.818Z" fill="white"/>
<path d="M337.377 243.822V245.869L356.416 256.048V254.02L337.377 243.822Z" fill="white"/>
<path d="M317.706 229.587L299.73 219.976V222.005L317.706 231.615V229.587Z" fill="white"/>
<path d="M319.585 230.61V232.62L356.416 252.352V250.324L319.585 230.61Z" fill="white"/>
<path d="M351.575 236.6V238.628L356.416 241.225V239.197L351.575 236.6Z" fill="white"/>
<path d="M325.203 218.782L299.73 205.153V207.182L325.203 220.81V218.782Z" fill="white"/>
<path d="M314.764 183.544L299.73 175.488V177.517L314.764 185.573V183.544Z" fill="white"/>
<path d="M339.42 196.737L316.644 184.549V186.577L339.42 198.765V196.737Z" fill="white"/>
<path d="M326.142 193.344L310.127 184.757V186.786L326.142 195.372V193.344Z" fill="white"/>
<path d="M342.954 202.348L328.022 194.349V196.377L342.954 204.357V202.348Z" fill="white"/>
<path d="M344.833 203.353V205.381L356.416 211.579V209.551L344.833 203.353Z" fill="white"/>
<path d="M302.692 184.492V186.52L314.764 192.984V190.956L302.692 184.492Z" fill="white"/>
<path d="M351.697 210.726L316.644 191.96V193.989L351.697 212.754V210.726Z" fill="white"/>
<path d="M331.637 211.105L308.718 198.841V200.869L331.637 213.134V211.105Z" fill="white"/>
<path d="M351.697 221.834L333.517 212.11V214.138L351.697 223.881V221.834Z" fill="white"/>
<path d="M349.695 231.88L327.082 219.787V221.815L349.695 233.909V231.88Z" fill="white"/>
<path d="M337.377 228.999V231.027L349.695 237.624V235.596L337.377 228.999Z" fill="white"/>
<path d="M304.163 211.219L299.73 208.85V210.878L304.163 213.247V211.219Z" fill="white"/>
<path d="M312.456 215.674V217.702L335.498 230.023V227.995L312.456 215.674Z" fill="white"/>
<path d="M310.577 214.669L306.042 212.243V214.271L310.577 216.697V214.669Z" fill="white"/>
<path d="M331.229 229.416L306.042 215.939V217.967L331.229 231.444V229.416Z" fill="white"/>
</g>
<g opacity="0.4">
<path d="M371.532 41.7017V43.7299L380.724 48.6393V46.6111L371.532 41.7017Z" fill="white"/>
<path d="M371.532 45.398V47.4262L380.724 52.3546V50.3264L371.532 45.398Z" fill="white"/>
<path d="M371.532 49.1132V51.1414L380.724 56.0509V54.0226L371.532 49.1132Z" fill="white"/>
<path d="M440.862 91.9522V89.924L384.176 59.5766V61.6048L440.862 91.9522Z" fill="white"/>
<path d="M371.532 52.8285V54.8567L380.724 59.7661V57.7379L371.532 52.8285Z" fill="white"/>
<path d="M371.532 56.5247V58.553L380.724 63.4814V61.4342L371.532 56.5247Z" fill="white"/>
<path d="M440.862 95.6675V93.6393L384.176 63.2918V65.32L440.862 95.6675Z" fill="white"/>
<path d="M371.532 67.6515V69.6797L380.724 74.5892V72.5609L371.532 67.6515Z" fill="white"/>
<path d="M371.532 71.3478V73.376L380.724 78.3044V76.2762L371.532 71.3478Z" fill="white"/>
<path d="M371.532 86.1898V88.218L380.724 93.1275V91.0992L371.532 86.1898Z" fill="white"/>
<path d="M371.532 89.8861V91.9143L380.724 96.8427V94.7955L371.532 89.8861Z" fill="white"/>
<path d="M419.924 115.798L384.176 96.6532V98.6814L419.924 117.826V115.798Z" fill="white"/>
<path d="M421.824 116.803V118.831L440.862 129.029V127.001L421.824 116.803Z" fill="white"/>
<path d="M402.132 102.567L384.176 92.9379V94.9661L402.132 104.595V102.567Z" fill="white"/>
<path d="M404.011 103.572V105.6L440.862 125.314V123.285L404.011 103.572Z" fill="white"/>
<path d="M436.021 109.562V111.609L440.862 114.187V112.159L436.021 109.562Z" fill="white"/>
<path d="M409.649 91.7437L384.176 78.1149V80.1431L409.649 93.772V91.7437Z" fill="white"/>
<path d="M399.211 56.5058L384.176 48.4688V50.497L399.211 58.534V56.5058Z" fill="white"/>
<path d="M423.846 69.6987L401.09 57.5104V59.5387L423.846 71.7269V69.6987Z" fill="white"/>
<path d="M410.589 66.3057L394.553 57.7379V59.7661L410.589 68.3339V66.3057Z" fill="white"/>
<path d="M427.401 75.3095L412.468 67.3103V69.3386L427.401 77.3377V75.3095Z" fill="white"/>
<path d="M429.28 76.3141V78.3423L440.862 84.5407V82.5125L429.28 76.3141Z" fill="white"/>
<path d="M387.118 57.4536V59.4818L399.211 65.9455V63.9173L387.118 57.4536Z" fill="white"/>
<path d="M436.143 83.6877L401.09 64.9409V66.9691L436.143 85.716V83.6877Z" fill="white"/>
<path d="M416.063 84.0668L393.164 71.8027V73.831L416.063 86.095V84.0668Z" fill="white"/>
<path d="M436.143 94.8145L417.963 85.0714V87.0997L436.143 96.8427V94.8145Z" fill="white"/>
<path d="M434.121 104.861L411.528 92.7673V94.7955L434.121 106.889V104.861Z" fill="white"/>
<path d="M421.824 101.98V104.008L434.121 110.585V108.557L421.824 101.98Z" fill="white"/>
<path d="M388.609 84.1995L384.176 81.8301V83.8583L388.609 86.2277V84.1995Z" fill="white"/>
<path d="M396.902 88.635V90.6633L419.924 103.003V100.956L396.902 88.635Z" fill="white"/>
<path d="M395.023 87.6304L390.488 85.2041V87.2324L395.023 89.6586V87.6304Z" fill="white"/>
<path d="M415.675 102.397L390.488 88.9194V90.9476L415.675 104.425V102.397Z" fill="white"/>
</g>
<path d="M205.478 302.167C203.603 301.567 201.6 301.399 199.639 301.676C197.679 301.954 195.82 302.668 194.223 303.759C188.095 307.55 184.009 312.725 186.501 314.658C188.993 316.592 193.794 318.658 196.919 317.615C200.045 316.573 215.488 308.157 205.478 302.167Z" fill="#0F4463"/>
<path d="M333.986 280.046L285.86 305.351L255.178 288.879L303.304 263.593L333.986 280.046Z" fill="#ED5561"/>
<path d="M295.277 304.745V305.73L343.404 280.16V279.439L295.277 304.745Z" fill="#F0CEC9"/>
<path d="M343.403 279.439L295.277 304.745L264.615 288.272L312.722 262.986L343.403 279.439Z" fill="#FFFBF0"/>
<path d="M295.277 304.745V305.73L264.615 289.258V288.272L295.277 304.745Z" fill="#F5DDD8"/>
<path d="M312.395 265.678L330.922 275.591L330.126 276.027L311.578 266.114L312.395 265.678Z" fill="#DFBAB8"/>
<path d="M310.475 266.701L329.002 276.615L328.185 277.032L309.658 267.118L310.475 266.701Z" fill="#DFBAB8"/>
<path d="M306.001 269.052L331.515 282.719L330.698 283.136L305.184 269.469L306.001 269.052Z" fill="#DFBAB8"/>
<path d="M304.224 269.981L329.738 283.647L328.941 284.064L303.407 270.398L304.224 269.981Z" fill="#DFBAB8"/>
<path d="M302.467 270.909L327.981 284.576L327.164 284.993L301.65 271.326L302.467 270.909Z" fill="#DFBAB8"/>
<path d="M300.69 271.838L326.203 285.505L325.407 285.922L299.893 272.255L300.69 271.838Z" fill="#DFBAB8"/>
<path d="M298.933 272.767L324.447 286.434L323.63 286.87L298.116 273.203L298.933 272.767Z" fill="#DFBAB8"/>
<path d="M297.156 273.696L322.69 287.363L321.873 287.799L296.359 274.132L297.156 273.696Z" fill="#DFBAB8"/>
<path d="M295.399 274.625L320.913 288.291L320.096 288.727L294.582 275.061L295.399 274.625Z" fill="#DFBAB8"/>
<path d="M293.622 275.553L319.156 289.22L318.339 289.656L292.826 275.989L293.622 275.553Z" fill="#DFBAB8"/>
<path d="M291.865 276.482L317.379 290.149L316.562 290.585L291.048 276.918L291.865 276.482Z" fill="#DFBAB8"/>
<path d="M290.088 277.411L315.622 291.078L314.805 291.514L289.292 277.847L290.088 277.411Z" fill="#DFBAB8"/>
<path d="M288.332 278.34L313.845 292.026L313.028 292.443L287.515 278.776L288.332 278.34Z" fill="#DFBAB8"/>
<path d="M286.575 279.288L312.089 292.935L311.272 293.371L285.758 279.705L286.575 279.288Z" fill="#DFBAB8"/>
<path d="M284.798 280.216L310.311 293.883L309.494 294.3L283.98 280.633L284.798 280.216Z" fill="#DFBAB8"/>
<path d="M283.041 281.145L308.554 294.812L307.737 295.229L282.224 281.562L283.041 281.145Z" fill="#DFBAB8"/>
<path d="M281.263 282.074L306.777 295.741L305.98 296.158L280.446 282.491L281.263 282.074Z" fill="#DFBAB8"/>
<path d="M260.469 294.774H255.975V299.285H260.469C261.276 299.285 262.05 299.583 262.621 300.113C263.192 300.642 263.512 301.361 263.512 302.11V309.427C263.507 310.172 263.184 310.886 262.614 311.411C262.043 311.937 261.272 312.232 260.469 312.232H253.871V316.743H260.469C262.562 316.743 264.569 315.973 266.051 314.601C267.533 313.23 268.369 311.369 268.374 309.427V302.167C268.379 301.199 268.179 300.24 267.784 299.345C267.39 298.449 266.809 297.635 266.074 296.948C265.34 296.262 264.467 295.716 263.505 295.343C262.543 294.97 261.511 294.777 260.469 294.774Z" fill="#A7BCCE"/>
<path d="M258.773 292.291V317.653C258.773 321.596 252.461 324.78 244.678 324.78C236.895 324.78 230.563 321.596 230.563 317.653V292.291H258.773Z" fill="#BBCEE1"/>
<path d="M230.563 292.291C230.563 296.215 236.875 299.418 244.678 299.418C252.481 299.418 258.773 296.215 258.773 292.291C258.773 288.367 252.461 285.107 244.678 285.107C236.895 285.107 230.563 288.367 230.563 292.291Z" fill="white"/>
<path d="M233.382 292.196C233.382 295.286 238.427 297.769 244.678 297.769C250.929 297.769 255.974 295.286 255.974 292.196C255.974 289.106 250.908 286.642 244.678 286.642C238.448 286.642 233.382 289.125 233.382 292.196Z" fill="#A7BCCE"/>
<path d="M244.678 290.282C239.735 290.282 235.547 291.855 233.995 294.073C235.547 296.253 239.735 297.864 244.678 297.864C249.622 297.864 253.809 296.291 255.341 294.073C253.809 291.855 249.622 290.282 244.678 290.282Z" fill="#9D4D36"/>
<path d="M250.01 298.887V324.25C252.44 323.821 254.72 322.845 256.649 321.406V296.044C254.72 297.482 252.44 298.459 250.01 298.887Z" fill="#A7BCCE"/>
</g>
<defs>
<linearGradient id="paint0_linear_20_95" x1="178.33" y1="251.044" x2="209.068" y2="142.097" gradientUnits="userSpaceOnUse">
<stop stop-color="#1C75BC"/>
<stop offset="0.28" stop-color="#2077BC"/>
<stop offset="0.54" stop-color="#2B7EBC"/>
<stop offset="0.8" stop-color="#3E88BC"/>
<stop offset="1" stop-color="#5394BC"/>
</linearGradient>
<clipPath id="clip0_20_95">
<rect width="479" height="442" fill="white"/>
</clipPath>
</defs>
</svg>
